/* XPM */
static char *_5f78b2378d74458c2e59de17d7ce65dJ5t64tdEZnD8qc0z[] = {
/* columns rows colors chars-per-pixel */
"64 65 236 2 ",
"   c #5A4712",
".  c #5C4A14",
"X  c #5E4D18",
"o  c #665118",
"O  c #6A551D",
"+  c #695927",
"@  c #765D25",
"#  c #796429",
"$  c #796632",
"%  c #786837",
"&  c #7E7143",
"*  c #846A2B",
"=  c #8B6B29",
"-  c #96712D",
";  c #876E34",
":  c #88733A",
">  c #977936",
",  c #BD7E2B",
"<  c #A77C32",
"1  c #887746",
"2  c #937C43",
"3  c #8D7E50",
"4  c #9C863D",
"5  c #A8863A",
"6  c #BA8737",
"7  c #B28E39",
"8  c #C0822F",
"9  c #C28531",
"0  c #C58A35",
"q  c #C38939",
"w  c #C28B3C",
"e  c #CC963B",
"r  c #CB943C",
"t  c #D19337",
"y  c #D1953A",
"u  c #D39A3C",
"i  c #D8A33E",
"p  c #988346",
"a  c #8C8157",
"s  c #93865B",
"d  c #998658",
"f  c #A78946",
"g  c #B58E44",
"h  c #A8934A",
"j  c #B89647",
"k  c #BC9646",
"l  c #A98D54",
"z  c #A28D5A",
"x  c #AA9358",
"c  c #B69756",
"v  c #958C66",
"b  c #A28E62",
"n  c #A99668",
"m  c #B59B64",
"M  c #A69D77",
"N  c #B9A468",
"B  c #AFA47E",
"V  c #BDAA76",
"C  c #C28E46",
"Z  c #C89645",
"A  c #CC9A43",
"S  c #C49C4B",
"D  c #D29741",
"F  c #D49B43",
"G  c #D49E4A",
"H  c #C49A57",
"J  c #C5A649",
"K  c #CAA24C",
"L  c #D5A144",
"P  c #D9A344",
"I  c #DCAB44",
"U  c #D6A14D",
"Y  c #D9A54A",
"T  c #D7A949",
"R  c #DCAA4B",
"E  c #CEB549",
"W  c #DDB34B",
"Q  c #D9B548",
"!  c #CEA452",
"~  c #C8A45B",
"^  c #D5A454",
"/  c #D9A554",
"(  c #DCAD53",
")  c #D5A659",
"_  c #D6AA59",
"`  c #DBAB5C",
"'  c #CBB155",
"]  c #CDB55A",
"[  c #D5B755",
"{  c #DEB255",
"}  c #DFB35A",
"|  c #E1B54D",
" . c #E4BA4D",
".. c #E1AF57",
"X. c #E0B357",
"o. c #E5BC55",
"O. c #E1B458",
"+. c #E6BB5C",
"@. c #C69E61",
"#. c #C8A768",
"$. c #D4AB63",
"%. c #D6AB66",
"&. c #DCAD61",
"*. c #CCB06A",
"=. c #DEB464",
"-. c #DDB26B",
";. c #D7B86C",
":. c #C8AC78",
">. c #C7B172",
",. c #CDB27B",
"<. c #DBB573",
"1. c #DABA78",
"2. c #E1B364",
"3. c #E3BB64",
"4. c #E1B56C",
"5. c #E4BA6C",
"6. c #E4BB74",
"7. c #E3BC7A",
"8. c #E7BC78",
"9. c #DFC158",
"0. c #E3C54F",
"q. c #E9C44E",
"w. c #E9C354",
"e. c #ECCB52",
"r. c #E6C458",
"t. c #EECD5C",
"y. c #F0CD57",
"u. c #EED25A",
"i. c #F1D555",
"p. c #F2D55C",
"a. c #F4D859",
"s. c #DCC56D",
"d. c #EECB63",
"f. c #E8C668",
"g. c #ECCC6B",
"h. c #EFD368",
"j. c #F3D664",
"k. c #F4D864",
"l. c #F2D66B",
"z. c #F2D86C",
"x. c #E5C377",
"c. c #EAC574",
"v. c #ECCC74",
"b. c #E9C27A",
"n. c #EDCC79",
"m. c #F1CF7E",
"M. c #EED477",
"N. c #F2D572",
"B. c #F3D973",
"V. c #F2D57B",
"C. c #F4D97B",
"Z. c #ACA686",
"A. c #B5AB87",
"S. c #B8B08F",
"D. c #CBB586",
"F. c #D5BB85",
"G. c #D3BB8B",
"H. c #CBBC97",
"J. c #D0BC90",
"K. c #E2BE82",
"L. c #C1BFA9",
"P. c #DCC585",
"I. c #DDC48C",
"U. c #D5C295",
"Y. c #DBC493",
"T. c #D8C79C",
"R. c #E4C384",
"E. c #EAC584",
"W. c #EDCB84",
"Q. c #E5C58A",
"!. c #E9C68A",
"~. c #E7C98D",
"^. c #ECCB8C",
"/. c #F1CE89",
"(. c #EED986",
"). c #ECD48A",
"_. c #F3D584",
"`. c #F4D983",
"'. c #F2D58B",
"]. c #F4D98C",
"[. c #F8DA8D",
"{. c #E4CA95",
"}. c #E4CA96",
"|. c #ECCC94",
" X c #EACD99",
".X c #F1CE91",
"XX c #EBD596",
"oX c #EDD39C",
"OX c #EEDB9B",
"+X c #F3D394",
"@X c #F5DA94",
"#X c #F8DA93",
"$X c #F4D59C",
"%X c #F4DA9C",
"&X c #F8DA9D",
"*X c #D9CBA6",
"=X c #DED1AA",
"-X c #CECEBB",
";X c #D8CEB1",
":X c #DAD3B7",
">X c #E5CEA1",
",X c #E7D6A7",
"<X c #ECD4A4",
"1X c #EBD6AB",
"2X c #EDDBAD",
"3X c #F2D5A2",
"4X c #F8D7A0",
"5X c #F5DAA4",
"6X c #F8DBA5",
"7X c #FADAA5",
"8X c #F9DAA6",
"9X c #FADAA7",
"0X c #F4DBAC",
"qX c #F9DBA9",
"wX c #E4D6B2",
"eX c #ECDBB5",
"rX c #E5DCBD",
"tX c #E9DDBD",
"yX c #F1DCB3",
"uX c #F0DEB9",
"iX c #EEE0BE",
"pX c #D4D7C5",
"aX c #DDDBC4",
"sX c #DDDECC",
"dX c #DDDFD1",
"fX c #E5DEC3",
"gX c #E8DEC2",
"hX c #E2DFCA",
"jX c #E1DFD1",
"kX c #DEE0CF",
"lX c #DEE1D3",
"zX c #DDE3DA",
"xX c #E3E0C7",
"cX c #E9E0C4",
"vX c #E1E0CD",
"bX c #E0E1D1",
/* pixels */
"eX8X8X8X8X8X8X8X8X8X8X8X8X8X8X8X8X8X8X8X8X8X8X8X8X8X8X8X8X8X8X8X8X8X8X8X8X8X8X8X8X8X8X8X8X8X8X8X8X8X8X8X8X8X8X8X8X8X8X8X8X8X8X2X",
"eX8X8X8X8X8X8X8X8X8X8X8X8X8X8X8X8X8X8X8X8X&X8X8X8X8X8X8X8X8X8X8X8X8X8X8X8X8X8X8X8X8X8X8X8X8X8X8X8X8X8X8X8X8X8X8X8X8X8X8X8X8X8X2X",
"eX8X8X8X8X8X8X8X8X8X8X8X8X8X8X8X8X8X8X8X8XB.C.8X8X8X8X8X8X8X8X8X8X8X8X8X8X8X8X8X8X8X8X8X8X8X8X8X8X8X8X8X8X8X8X8X8X8X8X8X8X8X8X2X",
"eX8X8X8X8X8X8X8X8X8X8X8X8X8X8X8X8X8X8X8X@Xp.p./.^.8X8X8X8X8X8X8X8X8X8X8X8X8X8X8X8X8X8X8X8X8X8X8X8X8X8X8X8X8X8X8X8X8X8X8X8X8X8X2X",
"eX8X8X8X8X8X8X8X8X8X8X8X8X8X8X8X8X&XE.&X&Xk.d.F ` 8X8X8X8X&XC.`.8X8X&X#X&X8X8X8X&XC.B.@X8X5X8X8X8X8X8X8X8X8X8X8X8X8X8X8X8X8X8X2X",
"eX8X8X8X8X8X8X8X8X8X8X8X8X8X8X8X8X^.D ` V.B.v.R r.#X&Xc.6./.j.p.#X8X].p.l.8X8X8X&XB.p.{ ` ^.&X#X8X8X8X8X8X8X8X8X8X8X8X8X8X8X8X2X",
"eX8X8X8X8X8X8X8X8X8X8X8X8X8X5X8XqX^.F F t.i.j.V.p.B.6.y u W.[.r.b.+X#Xp.p.).3X8X8X&X3.y F n.k.k.&X8XE.W.@X8XqX8X8X8X8X8X8X8X8X2X",
"eX8X8X8X8X8X8X8X8X8X8X4X8X5X4.5.&X8XE.6.5.i f.&X#X#X&.e ( &X5X/ y P m.[.k.h.*.F.5XC.| u &.'.e.o.@XE.F I l.&X^.E.8X8X8X8X8X8X8X2X",
"eX8X8X8X8X8X8X8X8X8X5X4.=.+X{ u ^.8X8X5X6.e / &X#X&X^.b.M.`.5X8.F u r.`.p.e.L g #.l.i.d.~.1.L u d.+.t i N.8.y / 4X8X8X8X8X8X8X2X",
"eX8X8X8X8X8X8X$X6.4.+X5.u E.N.w.'.qXE.` b.4.=.N.e.l.8X&Xp.j.&X@XW.c.C.&X`.+.t L x 1.[.&X{.! y F t.d.U O.`...t ` 5X8X8X8X8X8X8X2X",
"eX8X8X8X8X8X5X4.y F .X&X!.$X&X`.C.@XE.F ` 3X@X+.u 3.5X+Xj.k.[.j.k.#X8X8X%X8.F  .W A g.B.#.k u 3.&X&X$X_.p. ./ ^.8X8X8X8X8X8X8X2X",
"eX8X8X8X8X8X5Xb.R o.W.5X8.` n.j.i.`.8X+X+X8X8X2.y 4.4./ n.#X8XC.k.n.-.+.p.N.N.i.I A g.9.> 7 0.l.&X&X&X&XB.l.#X8X8X8X8X8X8X8X8X2X",
"eX8X8X8X8X8X8X8XC.| G E.F y f.a.p.#X5X3X&Xb.^.b.4.W.F u g.8X5X&X&XE.y y | `.&XC.3.l m 5 r ( ].v.O.w.j.`.8X+X8.&X8X8X8X8X8X8X8X2X",
"eX8X8X8X8X8X8X8X8X=.` E./ 2.c.v.@X5X|.*.-.u 8.8X8XR.L  .`.&X=./ $.#.) F =.8X$X2.^ > c A t 2.+XU t I p.[.8X4.y 8.8X8X8X8X8X8X8X2X",
"rX8X8X8X8X8X+X^.&X$X&X5X&X^.F 5.qX^.U r C S ~.8X X:.^.#X&X1.A t e !.3X.X+XqXQ.r t ^ '.{ I d.b.F u f.#X8X#X5.y 8.8X8X8X8X8X8X5X2X",
"rX8X8X8X5X|.U D _ _.8X3XQ._ e ~ {.$X2.4.l x _.V.N {.5X3X*.j f.4.=..X8X8X8XqX:.#.r P N._.l.B.@Xg.e.w.3.n.j.V.6.$X8X8X8X8X8X8X5XeX",
"rX5X8X5XqXE.U y P p.@X5X'.t.e.] x #.U / 2 >.k.E p m x z : J s. X_.B.`.&X8X{.m #.x g.l.@X5X5X5XC.w.u y  .p.].$X$X5X5X5X8X5X5X5XeX",
"eX5X5X8X3X8.6.c.y.k.[.C.B.`.C.#Xg.e y 6 2 oX].7 p ,.{.|.$.! Q.E.R q.p.[.5Xm 6 e H $X8X8X8X8X5X$X2.D / /.].6.U / ^.8X8X8X8X8X8XeX",
"rX8X3X|.^.U D b.].&XB.i.p.@X5X5Xd.R Z = 6 8.3Xp P.5.4.6.y F E.` y d.`.5XV 5 y u > z G.<X0X$X` ( v.c.E._.B.W y y -.5X8X8X8X8X8XeX",
"rX5X4.y &.!.2.g.C.&XN.k.`.8.` 2._.].:.; y D R.p ,.F F 8.4.R.3X$.6.5X0XD.p 3.2.r.Q p : 1 n <.y u i.w.F F q.h.b.E.$X8X0X0X0X0X0XeX",
"rX8X~.&.4.6./  .p.@X5X5X0X7.D / ^.=.~ g / y E.d N ` / 3XqX0XY.:.qX0XD.: [ a.V.O.P } r.E 4 < y ( h.m.` F 3.`.N.c.|.0X0X0X0X0X0XeX",
"rX0XyX0X~.u t } @X0X].C.].0X|.<X<XU t G !.R.8X:.p |.+X`.C.^.) $.5XY.: ,.z.i.d.F t F w.a.h.j f oX5X0X3XW._.'.I y F !.0X0XyX0X0XeX",
"tX0XyX0X~.^ -.oXyX0X`.q.o.!.0X0X0XK./ S H 6.|.U.% b %.W 0.R t U 3Xd b oXX.r.@X!.7.|.+XC.g.F k v.].0X|.( W v.=.F / R.yX0XyXyX0XeX",
"rXyXyX%Xl.c.|.yXyXyX^.F t F |.yXyXyX%X5.r y 5 1 > f r 6 = 6 A c >X: G.4.y 3.$X X3XyXyX0X$XG y q.j.oX` t G ).3X X3XyX0XyXyXyXyXeX",
"rXyXyXoX[ u &.].@X0XoX2.L ( oX].`.5X].w.I } F.P.j.a.o.6.z # G.d n : F.oXc.p.o.D U Q.U.:.n * ~ t.k.|.` U 8.5XyXyX5X%X0XyXyXyXyXeX",
"fXyXyX0Xx.F H 9.p.5XyXC.i.N.5Xj.i.C.0X@X`.5XyX@Xp.p.f.|.D.@ T.*Xz 6 G 7.%Xp.q.u y 5 $ 1 1 # x c.+XyX1X<XV.f.!.+Xj.j.5X<XQ.<XeXeX",
"fXyXyXyX2X~.G.h W E.%X5X@X%X2X`.p.l.oX7.Q.yXyX0XOXW.F ) z 1 1XyX1X-.t ^ 3X`.r.5 - c U.1XeXG.w F  XyXyXyXf.u G M.i.g.{.) u R.yXtX",
"fXyXyXyXyXyXyX<.y L t.%XyX@Xl.W.O..X<.t &.yXyXyXeX X_ > $ D.yX0X5X5Xk f 2X*Xj 6 g >XyXyX0X!.y r ~ 5XyX2X` y / >.h x m ^ L g.%XtX",
"fXyXyXyX0XyXyX2X1.5 r.%XeXOXp.| D {.-.U Q.eXeXeXeX1Xd % ,.1XQ.} o.@X>.; T.1 < G ~.yXyX%Xz.f._ S # N 1X2XR.c ; a H.-.G { 0.u.OXtX",
"fXeXyX].l.(.eXeX2Xz p 1XeXeX5Xx.-.1X<X<XeXeX{. XeXF.- >./ 7.6.y u g.V $ 1 . $ I.<.` R.`.i.l.1X(.J w ^ m 3 # 4  XyX-.y u f.OXeXtX",
"fXeXeXn.I  .XXeXeX X1 n eXeX2XC.C.yXuXuXiX|.F -.<X^ u w.L <.1X7.O.m.z X X X N Q.y e R.].i.C.5X].c.D t g n k P ^.eX<X6.R n.eXeXtX",
"fXeX1X/ t y 3.2X].z.$.- b T.).e.[ n d b V ] T  XU.r u t.^.<XeXeX1X>X%   . # g.x.G =.OX1X].).x.q.l.R.o.r.5X-.D <.eXeXeXOXOXeXeXtX",
"fXeXeXQ.&.R 9.G.M.u.P A 2 % : 7 r l n a @ O ; 3 $ = = I.eXeXeX7./ l X X X 7  .6.,X2XB.l.eXR.y =.OX2Xz.p.5XeX>X,XtXeXeXeXeXeXeXgX",
"fXeXtXiXeXOX,XD.N F./ | ).S.1 0 F  XiXtXU.h : : 3 1 X d eXtX1X` C O X X + $.y &.eXeX(.l.1XK._ {.eXeXOX(.eXtXtXtXtXtXtXeXtXtXtXfX",
"hXtXtXtXtXtXgXtXT.n p 5 p a c I c.eXtXtXtXeX2XeXtX=X1 X m K.>X,Xp X - < l {.<.>XtXtXtX2XeXtX X) ) ,XtXtXtXtXtXtXtXtXtXtXtXgXtXfX",
"hXtXtXtXtXtXtXtXgXeXs.;.U.wX(.i.C.tXrXtXtXtXtXtXtXgXH.+ = y -.A.o X 6 u G ,XtXgXtXtXtXgXgXgX,X%.<.wXtXtXtXtXtXtXtXtXtXtXtXgXtXfX",
"hXtXtXtXtXtXtXtXrXrXeXtXgXtXOXN.2XtXtXtXtXtXtXtXrXtXtXs @ r k @   X @ 6 ^ ,XtXtXtXtXtXtXtXtXtXtXtXgXtXtXtXtXtXtXtXtXtXgXgXgXtXfX",
"xXtXgXtXtXtXtXtXtXtXfXrXtXgXtXeXtXtXtXrXtXtXtXtXrXrXgXH.+ = @ X X X . $ *XtXgXtXtXtXtXtXtXtXtXtXtXtXtXtXtXtXtXtXtXtXtXgXtXgXtXfX",
"vXgXgXgXgXgXgXgXgXgXfXfXgXgXgXgXgXfXfXgXgXgXgXgXgXgXgXrX1   . X X X   1 rXgXgXgXgXgXgXgXgXgXgXgXgXgXgXgXgXgXgXgXgXgXgXgXgXgXgXfX",
"vXgXgXgXgXgXgXgXgXfXfXfXgXgXgXgXfXfXfXfXgXgXgXgXgXgXgXcXA.X . . X X   s gXgXgXgXgXgXgXgXgXgXgXgXgXgXgXgXgXgXgXgXgXgXgXgXgXgXfXfX",
"vXfXfXfXfXfXfXfXfXgXgXcXgXfXfXfXfXfXfXfXfXfXfXfXfXfXfXcX*X+   . X .   n cXfXfXfXfXfXfXfXfXfXfXfXfXfXgXgXgXgXgXgXgXgXgXgXgXgXfXxX",
"vXfXfXfXfXfXfXfXfXfX,XY.wXfXfXfXfXfXfXfXfXfXfXfXfXfXfXfXrX&   X . .   M cXfXfXfXfXfXfXfXfXfXfXfXeXOX2XfXfXfXfXfXfXfXfXfXfXfXfXhX",
"vXfXfXfXfXfXfXfXfXI.G y $.rXfXfXfXfXfXfXfXfXfXfXfXfXfXfXfX1   X X X . B xXfXfXfXfXfXfXfXfXfXfXfX(.i.z.eXfXfXfXfXfXfXfXfXfXfXfXhX",
"bXfXfXxXxXxXxXxXhXT.U G 1.fXfXxXxXxXxXxXxXxXxXxXxXxXxXxXfX3   X X X X Z.xXfXfXfXfXfXfXfXfXfXfXfX2XM.N.2XhXfXfXfXfXfXfXfXfXfXfXvX",
"bXxXxXxXxXxXxXxXxXxXwXwXfXxXxXxXxXxXxXxXxXxXxXxXxXxXxXxXfXa   X X X X A.xXfXxXxXxXxXxXxXxXxXxXxXxXfXrXfXxXxXxXxXxXxXxXxXxXxXxXvX",
"bXhXhXhXhXhXhXhXhXhXxXxXhXhXhXhXhXhXhXhXhXhXhXhXhXhXhXhXfXs   . X X X A.xXfXhXhXhXhXhXhXhXhXhXhXhXhXxXhXhXhXhXhXhXhXhXhXhXhXhXhX",
"bXhXhXhXhXhXhXhXhXhXhXhXhXhXhXhXhXhXhXhXhXhXhXhXhXhXhXhXhXs   . X X X S.vXhXhXhXhXhXhXhXhXhXhXhXhXhXhXhXhXhXhXhXhXhXhXhXhXhXhXjX",
"bXhXhXhXhXhXhXhXhXhXhXhXhXhXhXhXhXhXhXhXhXhXhXhXhXhXhXvXvXs   . X . X S.vXhXhXhXhXhXhXhXhXhXhXhXhXvXkXhXhXhXhXhXhXhXhXhXhXhXhXjX",
"bXvXvXvXvXvXvXvXvXvXvXvXvXvXvXvXvXvXvXvXvXvXvXvXvXvXvXvXvXs   . X X X S.bXvXvXvXvXvXvXvXvXvXvXvXvXvXvXvXvXvXvXvXvXvXvXvXvXvXvXbX",
"bXvXvXbXbXbXbXbXbXbXbXbXbXlXbXbXjXjXbXbXbXbXbXbXbXbXbXvXvXs   X X X X S.bXbXbXbXbXbXbXbXbXbXvXvXvXvXvXvXvXvXvXvXvXvXvXvXvXvXvXlX",
"lXbXbXbXbXbXbXbXbXbXbXbXhXhXvXbXbXbXbXbXbXbXbXbXbXbXbXvXhXa   X X X X S.bXbXbXbXvXvXbXbXbXbXbXvXvXvXvXvXbXbXbXbXbXvXvXvXvXvXvXlX",
"zXlXlXkXsXlXkXlXaXaXvX*X#.H ,.aXbXsXkXaXG.,.*XlXkXkXkXkXsX3   . X X X A.bXlXlXlXlXkXlXlXlXlXlXlXlXlXlXlXbXbXbXlXlXlXlXlXlXbXlXlX",
"zXdXkXkXkXkXsXU.H H :.C , , , :.G.H :.#., , C :XlXkXkXkXsX&   X X X X Z.bXkXkXkXkXkXkXkXkXkXkXlXlXbXsXkXaXJ.,.*XkXkXkXlXkXkXdXlX",
"zXlXlXlXlXlX*Xw , , , , , , , 6 6 , , , , , , F.lXlXlXlXpX%   X X X   B bXlXlXlXlXlXlXlXlXlXlXlXkXU.@.:.#., , 6 ;XlXlXlXlXlXlXlX",
"zXlXlXlX;X#.C , , , , , , , , , , , , , , , , q D.kXlXlX-X+   X       M bXlXlXlXaX1.<.:XlXlXlXsX*X6 , , , , , , :.lXlXlXlXlXlXzX",
"zXlXlXaXH , , , , , , , , , , , , , , , , , , , w :XlXzXL.+ . X       v lXlXlXlXF.y F ;XlXlX:XH q , , , , , , , 6 :.sXlXlXlXlXzX",
"T.*X>XI.r 0 w 0 0 0 0 0 0 0 0 9 9 9 9 9 9 9 9 8 w ;XsXkXZ.X X X   .   a dXzXlXlX*XF.T.lXlXlX#., , , , , , , , , , 6 ;XzXzXzXzXzX",
"' O.O.} X.X.{ { Y u P ( ( ( ( ( ( ( ( ( ( / / R ( ;.1.1.> . X X X . . $ 1.P.P.I.I.I.I.Y.Y.I.) A A D e e e e r r r A F.=X=X=X=X:X",
"' O.X.X.X.X.O.( u y L { O.X.X.X.X.X.X.X.X.X.X.X.X.X.X.K O   X X X X . O K X.X.X.X.X.X.X.X.X.O.O.X.X.X.X.X.X.X.X.X.X.O.} O.O.} -.",
"' O.X.X.X.X.O.X.( R { } X.X.X.X.X.X.X.X.X.O.O.O.X.{ K ; .   . X X . X . * 7 k S ! ( { X.X.X.X.X.X.X.X.X.X.X.X.X.X.X.X.{ O.O.{ =.",
"' O.X.X.X.X.X.X.X.X.X.X.X.X.X.X.X.X.X.X.{ ( ! S 5 - @ O # * O X X X O # * * * * = - > S X.X.X.X.X.X.X.X.{ X.X.X.X.X.X.X.X.X.{ =.",
"' O.X.X.X.X.X.X.X.X.X.X.X.X.X.X.X.X.X.X.{ ! k g g k S A D F K k g 7 g K ( { { ( ( ^ ! ( X.X.X.X.X.X.( F F R X.X.X.X.X.X.X.X.{ =.",
"' O.X.X.X.X.X.X.X.X.X.X.X.X.X.X.X.X.X.X.X.O.O.O.O.O.X.P y u ( O.O.O.O.O.X.X.X.X.X.O.X.X.X.X.X.X.X.{ Y y y F { X.X.X.X.X.X.X.X.=.",
"' O.X.X.X.X.X.X.X.X.X.X.X.X.X.X.X.X.X.X.X.X.X.X.X.X.{ ( R ( O.O.X.X.X.X.X.X.X.X.X.X.X.X.X.X.X.X.X.{ { Y Y ( X.X.X.X.X.X.X.X.X.=.",
"' O.X.X.X.X.X.X.X.X.X.X.X.X.X.X.X.X.X.X.X.X.{ ( X.X.X.O.O.O.X.X.X.X.X.X.X.X.X.X.X.X.R Y ( X.X.X.X.X.X.X.X.X.X.X.X.X.X.X.X.X.X.=."
};
