/* XPM */
static char *_642b06270d44930bc447d9e392a1971IPt0ubz8qig0d8as[] = {
/* columns rows colors chars-per-pixel */
"64 64 209 2 ",
"   c #1F334E",
".  c #1F3351",
"X  c #22324E",
"o  c #233451",
"O  c #283755",
"+  c #273855",
"@  c #293956",
"#  c #273758",
"$  c #273B5B",
"%  c #2A3B5C",
"&  c #2C3E62",
"*  c #2E4265",
"=  c #2E446B",
"-  c #314165",
";  c #30456D",
":  c #31486A",
">  c #2E4672",
",  c #2F4870",
"<  c #314671",
"1  c #334A74",
"2  c #334B7A",
"3  c #394F7B",
"4  c #3B527D",
"5  c #37527F",
"6  c #4D627F",
"7  c #344F81",
"8  c #365182",
"9  c #3C5483",
"0  c #3E5986",
"q  c #3B5689",
"w  c #3E5A8C",
"e  c #37558B",
"r  c #3F5D92",
"t  c #3F5F98",
"y  c #3F6195",
"u  c #3F6399",
"i  c #415785",
"p  c #415986",
"a  c #425C8D",
"s  c #415788",
"d  c #425E92",
"f  c #4E6483",
"g  c #4F6887",
"h  c #46618D",
"j  c #4E6589",
"k  c #516484",
"l  c #526887",
"z  c #526689",
"x  c #536A8C",
"c  c #586C8F",
"v  c #446195",
"b  c #496394",
"n  c #4A6896",
"m  c #45649B",
"M  c #48659D",
"N  c #45689D",
"B  c #4A6A9E",
"V  c #556D91",
"C  c #596E92",
"Z  c #567195",
"A  c #5A7295",
"S  c #56759C",
"D  c #5B759B",
"F  c #56789E",
"G  c #5C789E",
"H  c #4466A2",
"J  c #4967A0",
"K  c #456AA2",
"L  c #4B6BA2",
"P  c #476FAC",
"I  c #506FA5",
"U  c #4E71A4",
"Y  c #5373A4",
"T  c #567AA2",
"R  c #5C7BA3",
"E  c #5376AC",
"W  c #5578AC",
"Q  c #5B7CAE",
"!  c #5873A0",
"~  c #557CB3",
"^  c #5A7EB3",
"/  c #557FB9",
"(  c #4F77B4",
")  c #607CA3",
"_  c #5E82AA",
"`  c #5C82B5",
"'  c #5581BA",
"]  c #5C85BB",
"[  c #5884BB",
"{  c #6281A7",
"}  c #6284AB",
"|  c #6689AF",
" . c #6D88AD",
".. c #6587B2",
"X. c #658AB4",
"o. c #6A8CB4",
"O. c #6B8FB8",
"+. c #658ABC",
"@. c #6E91B7",
"#. c #6E94BB",
"$. c #7194BC",
"%. c #7498BF",
"&. c #7E9BBB",
"*. c #5C88C2",
"=. c #658DC2",
"-. c #6D94C1",
";. c #6B98CF",
":. c #7295C3",
">. c #749BC4",
",. c #7A9EC5",
"<. c #749ACA",
"1. c #789EC9",
"2. c #7095C9",
"3. c #74A0C7",
"4. c #76A2CB",
"5. c #7AA3CD",
"6. c #7AA0C7",
"7. c #7CA5D1",
"8. c #7DA9D3",
"9. c #83A6CE",
"0. c #84AAD5",
"q. c #86B1DB",
"w. c #A3BDDB",
"e. c #85ADE0",
"r. c #8CB4E3",
"t. c #8EB9E3",
"y. c #90BBE5",
"u. c #95BBEB",
"i. c #9BBEEA",
"p. c #94B8E5",
"a. c #96BDF1",
"s. c #9ABFF3",
"d. c #9CC2EC",
"f. c #97C0EE",
"g. c #96C3F4",
"h. c #9CC3F2",
"j. c #9EC8F3",
"k. c #93C4F9",
"l. c #9DC8FB",
"z. c #98C7FD",
"x. c #A3C2E3",
"c. c #AAC5E5",
"v. c #A4C5EC",
"b. c #AAC7EB",
"n. c #A6C9EC",
"m. c #ABCAEC",
"M. c #B6CBE4",
"N. c #B3CDEC",
"B. c #B3D1EE",
"V. c #BCD3ED",
"C. c #A2C6F3",
"Z. c #A4CAF4",
"A. c #AACCF3",
"S. c #A1C6FA",
"D. c #A4CCFA",
"F. c #ABCEFB",
"G. c #B1CCF2",
"H. c #AED0F5",
"J. c #ACD1FB",
"K. c #AAD4FD",
"L. c #B4D2F2",
"P. c #BCD5F4",
"I. c #BFD9F5",
"U. c #B3D3F9",
"Y. c #B8DAFD",
"T. c #C3D7F1",
"R. c #C4D9F3",
"E. c #C3DDFC",
"W. c #CADEFB",
"Q. c #CDE2FC",
"!. c #CBE6FF",
"~. c #D5E3F6",
"^. c #DDE6F7",
"/. c #DDE9F6",
"(. c #D5E5FC",
"). c #D9E7FB",
"_. c #D7E8FA",
"`. c #D7E8F8",
"'. c #D2EAFF",
"]. c #D7E9FD",
"[. c #D4EBFF",
"{. c #DBE8F9",
"}. c #D9E8FB",
"|. c #DBE8FB",
" X c #D9E9F9",
".X c #DCE9F9",
"XX c #DEE9FB",
"oX c #DDEAFA",
"OX c #D9E8FD",
"+X c #D8E9FD",
"@X c #DBEAFD",
"#X c #D9E9FF",
"$X c #DAE9FE",
"%X c #DAE9FF",
"&X c #D8EAFF",
"*X c #DAEAFF",
"=X c #DAE9FC",
"-X c #DCE9FC",
";X c #DDE8FC",
":X c #DDEAFD",
">X c #DEEAFE",
",X c #DAEDFF",
"<X c #DEEDFF",
"1X c #DBEBFE",
"2X c #DCF1FF",
"3X c #D6F0FF",
"4X c #E0EBFD",
"5X c #E1EBFD",
"6X c #E1F3FF",
/* pixels */
"(.(.(.(.(.(.(.(.(.(.(.)._._._._.}.`.).).}.).).).OXOX).).(.(.OX].(.(.(.(.).(.(.(.).(.).).(.(.(.(.'.'.(.'.(.(.(.(.(.(.Q.W.W.W.W.W.",
"(.(.(.(.(.(.).(.(.(.).)._._._._.}.}.}.).}.}.).;XOXOXOXOXOXOXOXOX]._.(.].).).).(.).).(.).(.(.(.(.(.'.(.(.(.(.(.(.(.(.(.Q.Q.W.W.W.",
"(.(.(.(.(.(.).).).).).).).).).)._._._.OXOXOXOXOX}.}.:X:XXXXX}.}.}.}.).).).).).).).).).(.(.(.(.(.(.(.(.(.(.(.(.(.(.(.(.Q.Q.Q.W.W.",
"(.(.(.(.(.(.(.).).).).).).}.}.}.OXOXOXOXOXOXOXOX).).}.}.XX/./.XX}.}.}.}.}.}.).).).).).).].(.(.(.(.(.(.(.(.(.(.(.(.(.'.'.(.Q.Q.W.",
"(.(.(.(.).).).).).OX}.}.}.}.}.}.OXOXOXOXOXOXOXOX:X:XXXXX/./././.XXXXXX}.}.}.}.}.}.}.).).).).).(.(.(.(.(.(.(.(.(.(.(.(.'.(.Q.Q.Q.",
"(.(.(.).).).).).OXOX}.}.}.}.OXOXOXOXOXOXOXOXOXOX:X:XXXXX/././././.XXXXXXXX}.}.}.}.}.}.}.).).).).)._.(.(.(.(.(.(.(.(.~.(.(.'.(.Q.",
"(.(.).).).).OXOX}.}.}.}.:X:X:X:XXXOX:XOXOXOXOXOX(.).OXOXXXXXXXXX/./.XXXXXXOXOXOXOXOXOXOX}.).).).)._.).(.(.(.).(.~.~.~.(.(.'.(.(.",
"(.).).).).OXOXOX}.}.}.:X:X:X:X:X:X:X:X:XOXOXOXOXQ.(.(.OX1X1X1X}.XXXXXX}.OXOXOXOXOX].OXOXOX}.).).)._.).).(.(.).).~.~.~.~.(.(.(.(.",
"OX(.(.OXOXOX).}.:X:X:X:X:X:X:X:X5XXX:X:XOX<X].W.M.P.R.[.3X'.3X].<X).<XOX<X(.V.Q.].1XOX(.).:XXX}.OX~.~.}.).).).~.~.).(.(.~.(.(.'.",
"OX(.).).).).}.:X:X:X:X:X:X:X:XXX5XXX4X4XOX'.R.N.I.N.N.!.'.!.w.[.<X(.(.1XT.V.V.N.[.[.[.1XOX).).).).}.:XOX).}.:X}.).).(.(.~.~.(.(.",
"OXOXOXOX}.).}.:X:X:X:X:XXXXXXXXX5X/.:X6X(.V.N.N.A.U.U.A.G.h h G.'.2XOXE.P.L.B.B.P.!.[.1XOXOX:X}.).].OX}.~.~.).).).).(.(.(.(.'.'.",
").OXOXOXOX}.}.}.:X:X:X:XXX:X:X:X:X:X<X].T.N.m.U.F.A.F.>.b n n b Q.[.W.b.m.m.H.H.m.L.!.[.OX).).<X<X(.(.:XOX(.).).(.(.(.(.(.(.'.(.",
"(.(.(.).}.OX:X:X:X:XXX:X:X:X4X<XOX2X1XI.m.G.H.n.F.Z.7.B v B b b b G.A.U.J.J.H.A.H.n.L.!.1X(.).:X:X(.(.OXOXOXOXOX(.).(.(.(.(.(.(.",
"OX1XOX}.}.OX<X:X:X:X:X:X4X4X4X<X6X!.I.N.m.A.J.D.F.r.y N v L M b a ! A.C.D.Z.D.Z.J.A.m.P.!.6X4X).).OX<XOX~.).OX(.).OX(.(.'.(.(.'.",
"~.(.<X<XOXOX:X:X:X:X:X4X4X4X4X<X[.L.c.m.A.Z.D.D.e.K L u B m J B B v v u.K.D.l.D.Z.A.A.c.V.(.<X).<X(.(.OXOXOXOXOXOXOX(.(.(.(.Q.T.",
"M.T.(.OXOXOXOX:X:X:X:X<X<X<X<X1Xm.m.m.A.Z.D.h.r.K u N K m B m M m v U m 2.D.D.j.D.Z.A.m.m.N.W.2X'.M.M.Q.1X].(.OX(.OX].(.].'.I.c.",
"b.c.E.].OX(.2X1X_.6X[.V.w.3X3Xb.v.Z.A.Z.C.F.1.B m m m N m m m m m m B v N <.S.S.h.F.A.A.A.v.n.A.n.x.H.x.[.'.OX(.(.(.1X'.!.N.v.A.",
"A.A.b.E.[.3X(.[.2X!.w. .o.C.F.F.h.D.C.h.F.:.B v M M m m m m m m B v L L y B 7.S.J.i.Z.C.C.J.C.j.h.D.d.A.x.E.1X'.(.(.Q.P.b.v.A.d.",
"C.C.v.n.N.[.2X3X[.&.{ | ..X.-.a.D.j.D.F.` B m B M M M m N N m J L v m L m v B W h.F.Z.C.Z.h.d.Z.j.D.C.n.U.x.c.[.'.].P. .o.Z.C.S.",
"D.h.C.n.A.x.m.Y.9.{ X.X.` ] ] ] h.f.D.+.m B B v M M M M m N J J m L B m m N m v U h.S.d.S.C.F.h.h.h.h.d.v.n.v.b.[.E.} n w q.S.h.",
"z.g.D.h.d.C.i.X.Q X.] ~ =.' ] ] ] 7.p.y B m m B M M M M m m m m J L J m N m N U N 7.h.S.h.i.Z.u.l.g.D.h.h.Z.C.i.i.Y n B m N a.S.",
"k.z.g.r.+.` Y y L ` ] / ] ' *.] ` ^ N L v I B m M M M M m m m m J m m J L N v r m L u.h.h.h.<.S.a.l.h.h.h.u.h.W B v B v K K J s.",
"k.z.;.~ ] ` m K H H ( *.*.' ] ~ +.~ y L m r d L M M M M M M m m m L L m m J L L m v L s.S.N m <.S.h.g.h.h.l.m K m L K v v m J L ",
"k.] ' ] E m L m H H K P ' [ ~ ] ~ N N m m L M m M M M M M M m m m m J J m m J m L m m L m N L N 2.a.a.r.=.N m m N v m J L m J m ",
"~ ~ ~ E L m m J J J H H K E ^ ^ B m m m m m m m m m m m m m m m m m M m L m m m m m m m m m m m B B N N m N m m m m m L m m M M ",
"^ ~ E L m m m m m m m m m B Y U m m m m m m m m m m m m m m m m m m M m m m m r m m m m m m m M b v m m v m m m d m m m m m n b ",
"W Y B b b b m m m m m m d v v n m m m m m m m m m m m m m m m m m m m d r b b q d m m m m m m n d b v b v v m v e v m q b b b a ",
"L m b v b b b d m b m m d d v a b v v v v m m m v v v v v v v v b b v d 8 d d 8 w d b b m d d b b b b d b v b d 7 d b 2 v v b 0 ",
"v v d v b v v d d d v d d b a 9 d b v v v v v v v v v v v v v v w d a w 2 a a 2 q d b v d d d d b d d q a d v 9 2 a d 2 a a a 8 ",
"d d d d d a d d d d d r d b a 2 d d v v d d d d d d d d d d d d 9 a a 9 2 9 0 2 8 a d d d a q q d d a 7 a a a 8 2 0 a 2 0 a a 2 ",
"t d d d a a d d d r d d d d q 2 a a d d d d r r r r d d d d d d 2 0 a 2 3 5 8 2 2 0 a a a a 9 7 w q q 2 a a a 2 2 5 8 2 5 0 w 2 ",
"r r d d d d w w d w r d a q 8 2 w w a a a r d r d r d r d d d a 2 9 p 3 3 3 3 2 < 9 s a a a 8 2 8 8 9 > 0 s a 1 1 3 3 1 3 0 0 2 ",
"r r r w d w w w a w a d a 8 2 2 9 w a a a d d w a d d w a a a 9 1 1 1 1 < < < 1 1 1 5 a a 9 2 < 2 2 2 1 3 i 4 1 < 1 1 1 1 4 4 1 ",
"a w w w w a a h a p p a 0 3 1 1 1 9 a a w q w a a a a a a a 0 5 1 1 1 1 < < < < < < 1 4 9 3 < < < 1 1 < 1 4 3 1 < 1 < = < 1 1 ; ",
"9 w a a a 0 9 8 2 1 1 1 1 , = , = 1 9 a p 0 a a s 0 0 9 8 3 1 = = ; ; ; ; ; ; 1 ; = ; 1 1 1 < = ; ; = ; 1 1 1 ; = ; = = = ; < = ",
"1 3 9 p 9 3 < = = = = ; ; ; ; ; = , 1 4 p p i 9 8 2 < 1 < = = = = = = = = = = ; ; = = ; ; ; ; ; = = = = ; = = = = ; ; = = ; ; = ",
"= = < < = = = ; ; ; ; ; ; ; ; ; = = ; 1 4 4 3 1 < = = = = = = : * * * * = * = * ; = = = ; = = ; = * = = = * = = = = = * = = = * ",
"= = = = & * = ; - - * * - - - * * * = ; ; ; = = = = = = = * * * * * * * * * * * * * * * = = = = * * * * * * * * * * * * * * * * ",
"= = ; ; ; - * & - - - - - - - - * * * = * & & * = = = = * * * % * * * * * * * * * * * * * * * * * * * * * * * * * * * * * * * * ",
"* & & & * * * * - - & & & & & * - * & * = * * * * = * & * * * * * * * * * * * * * * * * * * * * * * * & & * * * * * * * * * * * ",
"& & * * * * & & * * & & * * * * & & & & & & & & * & & & & & & & & & & & & & & & * & & & & & * * & & & & & & & & * * * * * * * * ",
"* & & & & & & & & & & & & & & & & & & & & & & & & & & & & & & & & & & & & & & & & & & & & & & & & & & & & & & & & & & & & & & & ",
"% % % % % % % % % % % % % % % % % % & & & & & & & & & & & & % % & & & & & & % % % % % % % % % % & & & & & & & & & & & & & % % % ",
"$ $ % % % % % % $ $ % % % % % % % % % % % % % % % % % % & % % % % % % % % % % $ % % $ + + # $ % % % % % % % % $ & % & % % % % % ",
"+ + $ $ % % % % $ $ $ $ $ $ $ $ $ $ $ $ % $ $ $ $ $ $ $ % $ $ $ $ $ % % % $ $ $ $ + o o X o o + $ $ % $ % % % % $ $ % $ % % % % ",
"o o + + @ @ @ @ $ $ $ @ + + + o $ $ $ $ $ $ $ @ $ $ $ @ $ @ $ @ $ $ $ $ $ @ $ @ o X X X X X X X + + # + $ $ $ $ $ $ $ $ $ @ # + ",
"X X o X o X O o @ @ O o o o o X o o + o + @ @ O @ @ o o o o o o + o + O O o o o X X X X X X X X X X o o o o + o $ @ O o o o o X ",
"X X X X X X X X O o o o X X X X X X X o o o o O O o o X X X X X X X X o X X X X X X X X X X X X o X X X X X X X X X X X X X X X ",
"o X X X X X X X X X X X X X X X X X X o o X X X X X X X X X X X X X X X X X X X X X X X X X X X o o o o o o X X X X X X X X X X ",
"X X X X o o o o X X X X X X X X X X o o o o o o X X X X X X X X o X X X X X X X o X X X X X o o X X X X X X X X X X o o o o o o ",
"o o o o o o o . . . o o o o o o o o o o o o o o o o o o o o o o o o o   o X o o o X o   X   o o o o o o o o o o o . o . o o o o ",
"k k k f f 6 f f f 6 k k k k k k k k k k k k k f k k k k k k k k k k k f k f k f f f k k k f f f k k k f f f f f f 6 f 6 f f f f ",
"k k k k k k k l x l k k k k k k k k k k k k k k z l z k k k k f k z z x z z z j z z z z z z z j f f f f f f f f x l x k f f f f ",
"k z z x x x x x C C c x x z z z C C C A A A A A C C c c x x z z x x V C V x x x z z j j j j j j j g x x x x x x C c c x x x j g ",
"C C A A A A A D D D D A A A A A C C C A A A A A D D D D A A A A D D D D D D D D A V C V V V C C A A A A A A D A D A D A A A A Z ",
"D D D D D D D D S S D D D D D D D D D D D D D D D D D D D D D D D D D D D D D D D D D D D D D D D D D D D D D D D A D D D D D D ",
"D D D R R S S G D G D D D R D S D D D D D D D D D D D D D D D D D D D D D D G D D G G D G D D D D D D S D D R Z D G R Z D D G D ",
"R R R S S R R F F F S S D D R R S S G R } } { R S S S G G R R R G G D D ) G D G G G D D D D D R D D D G D D D G D G D D R D D D ",
"o.$.$.$.$.$.o._ R R R R R T S T R } o.#.$.$.$.#.$.$.O.X.{ R T S D R D D ) G S R G G G R { R D G R R R R R ) R D R R S R R ) D R ",
"$.$.$.%.$.#.#.#.#.#.#.#.$.#.} S } #.>.>.#.$.>.>.#.#.$.$.$.#.#.#.F { } R S G R R S { o.O.$.o.R S R { { S o.$.$.R R { R R R ..{ R ",
">.>.>.>.>.>.>.4.>.>.>.>.>.>.o.T >.>.>.>.>.>.>.#.>.>.>.>.>.>.>.>.} @.>.| T } o.T _ @.>.,.,.%.o.} #.$.O.R $.>.:._ T ..o.R } $.#.R ",
">.1.6.>.>.>.>.>.1.5.5.>.>.6.>.#.>.3.4.4.4.4.4.3.>.>.>.3.4.4.4.4.>.>.6.#._ #.>.T O.>.1.>.>.>.>.>.6.,.,.o.5.>.,.>.R #.>...$.,.,.} ",
"u.t.0.5.4.5.5.5.4.4.4.4.4.5.7.7.4.4.4.4.4.4.4.5.5.5.5.4.4.4.4.4.5.4.5.>.-.4.5.O.>.4.5.6.5.6.4.5.>.6.5.1.9.>.>.5.#.1.6.>.1.5.6.>.",
"K.h.y.y.r.8.4.5.7.4.7.q.t.y.y.y.t.8.4.4.8.7.4.4.5.5.4.4.4.5.5.5.7.4.4.7.5.5.5.5.5.5.8.q.q.8.4.7.Z.Y.J.Z.d.t.6.6.5.9.6.5.6.5.6.0."
};
