/* XPM */
static char *_7b7bea85ab248a0a9669c5ce167f7ffrNlO2wVQNl2sjMsB[] = {
/* columns rows colors chars-per-pixel */
"64 64 256 2 ",
"   c #4D3F00",
".  c #3C5729",
"X  c #3A5736",
"o  c #384A24",
"O  c #3F5413",
"+  c #4A4805",
"@  c #554C02",
"#  c #5B4C01",
"$  c #58490A",
"%  c #4B5504",
"&  c #5B5302",
"*  c #575308",
"=  c #4B4C1C",
"-  c #584B16",
";  c #595318",
":  c #46571D",
">  c #624B01",
",  c #624701",
"<  c #624E11",
"1  c #556C0F",
"2  c #637716",
"3  c #4C4B23",
"4  c #465828",
"5  c #4F5530",
"6  c #675827",
"7  c #526938",
"8  c #6E712F",
"9  c #3E5944",
"0  c #3D6E41",
"q  c #455845",
"w  c #4A6646",
"e  c #586846",
"r  c #587648",
"t  c #4E7052",
"y  c #64754B",
"u  c #6B7352",
"i  c #50736B",
"p  c #687E64",
"a  c #867B57",
"s  c #4F993B",
"d  c #768A28",
"f  c #738E34",
"g  c #39974A",
"h  c #399956",
"j  c #3D8D5B",
"k  c #3A9B5B",
"l  c #45984B",
"z  c #579A48",
"x  c #449859",
"c  c #508D57",
"v  c #6C8B51",
"b  c #57A24D",
"n  c #71B257",
"m  c #469664",
"M  c #4F8F6D",
"N  c #708D71",
"B  c #59A676",
"V  c #7AAC77",
"C  c #7AB679",
"Z  c #79A86C",
"A  c #899257",
"S  c #8DB94D",
"D  c #93BC4E",
"F  c #98B74B",
"G  c #8ABB57",
"H  c #95B654",
"J  c #9BB553",
"K  c #94BA52",
"L  c #9ABA54",
"P  c #9BB659",
"I  c #95BB5A",
"U  c #99B959",
"Y  c #96AD50",
"T  c #A2BA57",
"R  c #85976E",
"E  c #86B966",
"W  c #95B767",
"Q  c #88A979",
"!  c #83B47C",
"~  c #87B678",
"^  c #96B775",
"/  c #91A874",
"(  c #A5B269",
")  c #A49E7A",
"_  c #89C15C",
"`  c #95C256",
"'  c #97C24C",
"]  c #86C465",
"[  c #91C46B",
"{  c #829E38",
"}  c #739187",
"|  c #7AAD87",
" . c #7AB686",
".. c #7AB696",
"X. c #76AE94",
"o. c #7CB3A8",
"O. c #7BC3A6",
"+. c #8E9C8D",
"@. c #88AB87",
"#. c #98AB89",
"$. c #85B887",
"%. c #95B788",
"&. c #87B797",
"*. c #94B897",
"=. c #8EAA96",
"-. c #A8B899",
";. c #B5BB9C",
":. c #A6BA89",
">. c #87BBA6",
",. c #93B6A4",
"<. c #8DB3AE",
"1. c #B2B1B0",
"2. c #AC9CB0",
"3. c #C6BBBB",
"4. c #C8ABB4",
"5. c #C5BB86",
"6. c #8DC185",
"7. c #8AC59A",
"8. c #97C898",
"9. c #96C78C",
"0. c #A6C69A",
"q. c #AFCD97",
"w. c #88C4A5",
"e. c #97CAA8",
"r. c #98D3A6",
"t. c #8AC6B5",
"y. c #9AD7B9",
"u. c #97CAB4",
"i. c #A6C8AB",
"p. c #B7CAAA",
"a. c #A8D7A6",
"s. c #B8D7AA",
"d. c #B6C9B5",
"f. c #A7D6B9",
"g. c #B8D8B9",
"h. c #A6C8B5",
"j. c #ABE3B5",
"k. c #B6E5B8",
"l. c #AEE1A9",
"z. c #A9E29D",
"x. c #C4D8B7",
"c. c #CACFB2",
"v. c #CAE4B7",
"b. c #D1E4B8",
"n. c #C9C794",
"m. c #B8B9C7",
"M. c #B1B7D3",
"N. c #9EB5DF",
"B. c #C7B4C8",
"V. c #9AD6C6",
"C. c #9CD8D8",
"Z. c #90CCCA",
"A. c #AACBC5",
"S. c #B7C7C9",
"D. c #A7D8C9",
"F. c #B7DAC8",
"G. c #A6DAD5",
"H. c #B6DAD8",
"J. c #AECAD5",
"K. c #9AE6CE",
"L. c #ABE6C9",
"P. c #B3E4CD",
"I. c #B8E7C7",
"U. c #AAE5DB",
"Y. c #A7E3D8",
"T. c #BAE4DC",
"R. c #B6E7D7",
"E. c #BAF4D6",
"W. c #9CDBE9",
"Q. c #9CDCF4",
"!. c #9DDEFE",
"~. c #97D9F8",
"^. c #9DCAE7",
"/. c #ADDFE4",
"(. c #A4DDEB",
"). c #ACDCEB",
"_. c #A6D8E6",
"`. c #B6DAE8",
"'. c #A3DDF4",
"]. c #A2DDFD",
"[. c #ABDDFD",
"{. c #A9DAF5",
"}. c #B4DAF5",
"|. c #B2CAEB",
" X c #9DE3E6",
".X c #9DE2F4",
"XX c #9CE1FC",
"oX c #9BE6FD",
"OX c #A3E1E3",
"+X c #ABE4E4",
"@X c #A9E4EC",
"#X c #B3E3E4",
"$X c #B4E4EB",
"%X c #BCE4ED",
"&X c #BBE9E7",
"*X c #A3E2F4",
"=X c #A3E2FD",
"-X c #ABE2FD",
";X c #ABE4F5",
":X c #B3E4F4",
">X c #BDEAF3",
",X c #B3E4FB",
"<X c #BCE5FD",
"1X c #B2EBFD",
"2X c #BCE9FD",
"3X c #B9E7F3",
"4X c #BBF1F0",
"5X c #CAC6C7",
"6X c #D8C8C6",
"7X c #C7D8C8",
"8X c #D7D8C8",
"9X c #C9CAD5",
"0X c #D6CCD8",
"qX c #C7D8D7",
"wX c #D4D8D7",
"eX c #E4C7D6",
"rX c #E7D0D3",
"tX c #C5E8C7",
"yX c #D5E5C7",
"uX c #C4E8D7",
"iX c #D9E7DA",
"pX c #C5F1DB",
"aX c #CBF5CF",
"sX c #D8CBE3",
"dX c #C7D6E7",
"fX c #D4D8E5",
"gX c #C5DAF5",
"hX c #D3D6EF",
"jX c #E9D0E7",
"kX c #C6E9E8",
"lX c #D8EAE7",
"zX c #C8F6E9",
"xX c #DDF6E7",
"cX c #C3ECF4",
"vX c #CBEDF5",
"bX c #C2E5FD",
"nX c #C4EBFD",
"mX c #CBEDFD",
"MX c #CAE4F7",
"NX c #D2EDF6",
"BX c #D2EDFD",
"VX c #DBEEFE",
"CX c #D7EAF6",
"ZX c #CDF2FC",
"AX c #C9F4F5",
"SX c #D2F4F5",
"DX c #D4F2FC",
"FX c #DBF3FD",
"GX c #D5FAFD",
"HX c #DCFAFE",
"JX c #D8FAF4",
"KX c #E5F5EA",
"LX c #E2F3FE",
"PX c #E1F9FD",
"IX c #E6F0F5",
"UX c #EAECDF",
/* pixels */
"=X].].].].].XXXXXX!.].].].].!..XXXXX].].].!.].].~.XX=X].'.].=XXX!.].*X.X!.!.=X!.].!.!.=X].'.[.].=XXX~.!.=X].].].].XXXXoXXX!.].].",
"=X].].].].!.XXXX!.].].].].].!.XXXXXX].].!.!.].!.XXXX].].].].XX!.!.=XQ.Q.-X!.~.=XQ.Q.=X=X=X=X].].!.!.!.XX=X!.].].].!.XXXXXX!.].].",
"XX!.!.!.!.!.!.!.].].].].].!.!.!.XX!.].].!.!.!.!.=X!.!.].].!.!.!.!.].].'.!.!.=X XOXY.@XW.~.oX!.XX].].].!.XX!.=X-X].!.!.XX.XXX].].",
"XXXXXXXXXX!.!.!.].].].].!.!.!.!.!.].].].!.!.!.!.!.!.=X].].!.XX=XQ.-X].'.@XOXOXY...X.Z.*X=XXX~.].].[.-X].Q.=X!.~.].].!.XX.X!.].].",
"XXXXXXXXXXXX!.!.].].'.'.].!.!.!.].].].].].].!.!.!.=XXX!.=X*XW.W. XW.[._.7.8.L.>. . .Z.'.!.].].{.}._.).'.!.=X=X=X].].!.!.!.].].].",
"].!.XXXXXXXX!.!.!.XX*X*X'.!.!.!.!.!.!.].].]..X.X!.=X!.!.*XC.t.w.V.Y.).D.! ~ F.A.Q 8.D.(.'.-X-X^.bX|.{.;X!.!.Q.!.].].].!.!.].].].",
"].!.].!.!.].].].XXXX!.].'.'.!.!.!.!.!.!.'.(.*X.X].=X!.XX Xt.C C r.X.&.f.%.#.0X0XqXg.8.y.@X~.Q.[.|.N.{.[.XXoXQ.XX].].].].!.!.].].",
"].].].].].].[.].!.XX!.!.!.].'..X.XXX!.!.(.OXOX X(.(.*X*X Xw.V ~ j.w.&.d.8XrXjX2.fXF.V  ./.}.).}.}.|.}.^.^..X.XXX].].].!.!.!.!.!.",
"].=X].'.{.}.}.}.!.XXXX!.!.!.Q.*X.XXX!.!.(.U.K.y.D.D.D.D.+XV.j.j.Y.+XA.qX1.eXeX0XqXD.e.&.H.dXS.J.M.dX&. .O. X.X.X=X~.=X].!.=X!.!.",
"=X!.!.=X'._.|.gX{.=X!.!.=X!.=X(.OX@XQ.*Xo.y.O.....i.@.=.t.V.| w._.(.).dXsXjXB.5Xu.e.L.D.S.qXm.wXdXJ.&.7.K. XXX!.].].Q.!.!.!.!.=X",
"].!.XXQ.(.%X9Xm.`.{.].!.XX~.=X(...w./.V.C C K.o.X.i.7XS.H.G.&.X.C.W.=X{.dXfX1.2.Z V >.T.qX0X0X2.dX_.+XOX X!.!.].!.=XW..X=X!.!.!.",
"!.XXoXQ.*XmXfX2.J.).-X].!.=X=XOXw.| D.A.C  .G./.F.7X3.3.F.f.f.P.G.,X[.{.J.dXdX7Xw 0.f.A.,.1.3.wXdX}.[.].~.=X].].[.;X*X.X=X!.!.!.",
"=X!.XXXXQ.).dXM.H./.C.)._.(.(.U.f.g.S.S.F.A.`.`.g.;.rXrX0.C $.F.`.gX|.`.gX`.`.H.i i.%.r r d.i.&.G.).Q.=X].-X[._.G.V.@X.XQ.XX!.].",
"=X~.!.oX!.'.}.`.+XC.=.A.A.<.Z.Y.P.=.wXwXfXdXgXH.F.-.rX6X^ E 8.F.hXM.hXhXdX`./.<.t g.7 v @.I.e...o.(.=X=X;XC.G.u.&.>.W.XXQ.=X!.].",
"].].].!.XXXX].'. XZ.,.p.p.@.&.y.e.i.c.4.6X9X9XdXH.fX2.eXF.8.! @.1.9XsXm.9XqXJ.S.q u i.&.o.Y.U.Z.Z.OXQ.W.t.7.a.$.V &.(.=XXX=X].!.",
"=X=X].].!.!.!..X XV.7Xc.b.-.| f.f.,.wX0XeXrX5X9XJ.S.sX0XF.N r #.7XfXdXfXwXwX9X1.R x.F.P.Y. X(.(.W.*XW.@X..C 6.C $.V.*X!.XXQ.].].",
".XXX].].].=X.X XX.*.8X2.rX3.S.h.P.H.}.hXeX4.wX7X} F.9XwXN =.-.7XH.H.,X).J.qX=.w @.k.a.7.C.;X(.'.].=XXXOXL.a.f.R.U.OX*XXXoX~.].[.",
"=X=X].].].=X.XY.f.@.;.8X0X9XiX,.t D._.dX2.6XwXN #.N p q } S.wXwX,.D.W.*X#XN -.w &.L.V  .Y.C.+X@X-X!.*XOX7.&.u.G.G.t.W.Q.~.=X].].",
"[.].].].XXXX].{.P.7.~ 8.T.`.*.@.! t F.,.=.d./ 7 Z Z V g.qXdXm.5X#.,.#XU.e.| g.X F.D.&...D.o...t.@XQ.;XC. .C  .f.7...Z.).-X=X'.;X",
"[.[.].].XX=X[.}.U.&.C $.L.L.g.$.! %.y 7 u.f.^ 7 a.C C &.H.hXsX0X8X8XH.h.0 ! *.N i D.f.k.E.D.e.L.V.+X(.+Xe.$.r.I.r.| P.).(.].-X-X",
"-X-X*X=X=X=X[.;XR.&.| j.6.! $.I.P.f.v v 8.I.s.w H.V...t./.`.S.5X6X1.wXw V ! *.H.o.i . 7 @.F.F.e.$. .Y.+XL.P.+X+XP.P.G./.:X'.].].",
"-X-X;X;X-X-X-X$XP.f.R.f.~ ~ $.I.>.I./ f a.$.s.9 T.#XU.Y.:X3X} qXrXc.c.0.a.a.T.#X`.T.a.v w d.R...V $.R.V.w.w.Z.+Xw.| >.T.+X1X].-X",
"-X-X-X:X%X%X:X#X8.C w.R.&.7.I. .V 9.s.r 9./ :.v %.I.H.).).`.i qX7Xp v / a.D./.,X,X+XP.*.v 7 I.L.P.P.U...V $.t.V. .C &.I.Y.+X'.,X",
"}.}.gXgXfXdXdXT. . .>.+X&XR.P.$.! 8.R.p R / :.Q . p } J.`.H.i 7Xd.4 ^ ~ | D.3X{.-X;X&XF.v.4 V  .,.T.U.y.$.$.Y.L.C [ s.*.X.G.3X}.",
"gXgXsXjXeX2.fXqXR.Y.;X-X:X/.&X>.<.&X#XH.N X X t N N X.i q 7Xy / / Q s.V ..V.#X:X,X}.`.uX;.. 6. . .D.).$XR.P.>X#Xf.a.x.-.=.A.).1X",
"gXhXB.eXeXeXrXqX#X;X1X].1X,X$X$X$X).3X$XH.T.T.R.H.pXF.F.e A :.4 N y $.I.L.E.h.kX%XH.<.} 4 -.k.$.&.P.2X$X>.P.).cXd.#.1.6X7XuX>X'.",
"nX`.0XjXeX3.u g.&X@X1X-X-X1X@X$X,X2X:X:X,X:X3X$X$XU.pXtX7 / g.=.7 4 @.k.8.Z / / X 9 N +.e 4 0.uXU.%X#Xy. .8.H.MX8X6XeX4.5XfX`.,X",
",XbXMXfX1.1.#.t f.G./.2X:X$XU.U.$X+XV.U.2X[.:X$X3X#XD.V . %.I.I.v.R w k.^ W 1 4 N uXuXuX-.v 4 h.kX:X#Xu.C 6.uXA.c.6XeXeXjXhXnX;X",
"2X}.<X%XkXh.@.8.w @.h.&XuX=.$.6.I.| ! &.%XbX&XT.%X&XR . v r.I.r.~ q.X yX( % : r H.$X,X3XH.=.7 u uX%X3X#X8.s.N t p.;.eXeXhXgX[.1X",
"<X<X2X:XT.uXI.v.v.4 ,.qXuXg.9.l.k.8.C V H.H.&.e.uXA.X #.f.R.y. .! a.5 c.8 ; e uXcX,X1X-X>XT.7Xe i H.kXH.@.. *.h.*.x.6X9XMX<X2X1X",
"nX,X<X%X&.9.a.@.^ q.4 i.=.I.E.D.f.I.e.u.4XR.V ~ s.q N uXcX#Xu.@.&.g.5 a - 5 qX%X<X,X<X2X3X$XZXH.} X q . 4 q.kX>XnX`.MXMX`.,X1X=X",
"<X2X>XT.@.%.tX0.~ q.v e @.tXE.y.&.*.uXR.R.aX9.W / 4 1.MX<X3X&XI.uXc.= - - ) kX2X,X2XbX}.2X3X<XkXf.s.v.c.^ ~ H.<X,X<X3XcXbX3X1X1X",
"2X$XT.F.tXx.1.6X%.a.p.e 4 %.%.@.7 X . 5 e 0.b.v.8 3 1.kX2X2X4XpXyXu - - 3 yX#X2X<X<XbX<X2X2X3XT.~ ~ I.I.~ V f.cX<X<X>X%X<X<X2X1X",
"2X#X..&.@.8XrX3.g.aXtXyXp.y 4 . %.v.s.:.7 4 o 4 = = u uXkXG.y.uXn.; $ - y 7XkX3X2X<XbXbX<X2X>XR.Z C T.kXa.6.f.#X<X<X>X>X2X2X2X<X",
"3XAXf.| Q b.8X5Xr Z s.x.d.N w g.s.~ %.v.Q %.p.p.b.A 4 R ^ / Q x.8 + ; ; -.uXcX2X2XnXnXbX<XnX2X&X&.&.#X>XpXP.zXnX<X<X2X>X2X2X2X2X",
"nX>XzXuX%.Q 8X7X,.f.N t } S.kXuX0.! @.uXpXI.tX@.Q v.5 + A W ( A + ; - 3 8XlXcX<X2XnXnXnXnXnXnXcXkXH.bX<XAXkXcX<X<X<X2X2X2X2X2X2X",
"2X3X>XzX@.%.lXm.&XR.=.g.aXuXkXzXf.>.T.AX&X&XuX@.~ ^ q.3 5 n.5.; * * = a lXMXnX2X2XbXbXbXnXnXnXbXcXcXnXnXbXnXnXnXbXbXbXnXbXbXnXnX",
"ZXZXbXcXP.uXkXNXcXZXkXpX*.@.uXkXzXpXcX4X4XzXpXi.! %.yXe 3 6 6 @ @ + = ;.lXMXmXnXnXnXnXnXnXnXnXnXnXnXnXnXbXnXbXnXnXnXnXnXnXnXnXnX",
"<XmXbXcXAX%XDXMXnX<XMXuX$.~ F.zXuXI.E...&.pXzXAXkXkXlXd.3 $ & # & * 3 5XCXBXnX<XnXnXnXnXnXnXnXnXmXnXbXnXnXmXnXnXnXnXnXnXnXnXnXnX",
"DXbXmXnX2XnXbXmXmXbXmXkX@.r.pXpX*.Q I.e.@.P.kXbXnXbXvXiX5 $ + & @ $ 5 iXCXbXnXnXnXcXnXnXnXnXnXnXnXnXnXnXnX3XnXnXnXnXnXnXnXnXnXnX",
"mXmXmXmXnXnXnXnXnXmXvXvXcXzXkXpXZ %.I.zXkXkXcXZXnXZXvXiXA $ @ @ & $ 5 iXCXmXmXnXnXnXnXnXnXnXnXnXnXmXmXmXnXnXmXmXmXmXnXnXmXmXmXnX",
"mXmXmXmXnXnXnXnXmXvXvXmXnXnXcXzX8.a.pXAXvXvXvXmXnXnXmXlX;.; $ @ # $ 5 lXNXmXmXnXnXnXmXmXmXmXmXmXmXmXmXmXmXmXmXmXmXmXmXmXmXmXmXmX",
"BXBXmXmXmXnXnXmXvXvXmXmXmXmXmXvXT.kXZXmXmXBXmXmXZXnXvXlX8X= $ # # $ 7 lXNXmXmXmXnXnXmXmXmXmXmXmXmXmXmXmXmXmXmXmXmXmXmXmXmXmXmXmX",
"BXBXBXmXmXmXmXmXvXvXmXmXmXmXmXmXZXZXmXmXmXBXmXBXnXZXNXlX8X3 $ > > $ e lXNXmXmXmXmXmXmXmXmXmXmXmXmXmXmXmXmXmXmXmXmXmXmXmXmXmXmXmX",
"BXmXmXmXmXmXmXmXmXmXmXmXmXmXmXmXnXZXmXmXmXBXBXmXcXAXNXxXyX3 $ # > $ y lXNXmXmXmXmXmXmXmXBXBXmXmXmXmXmXmXmXmXmXmXmXmXmXmXmXmXmXmX",
"DXmXmXmXBXBXBXmXmXmXmXZXBXBXmXmXnXZXmXBXDXBXBXZXZXkXNXlXiX3 < , , $ u lXDXmXmXmXmXZXmXmXBXBXmXmXmXmXmXmXmXmXmXmXmXmXmXmXmXmXmXmX",
"ZXZXZXZXBXBXBXBXZXAXZXZXBXBXBXZXZXZXBXVXBXvXZXZXGXvXmXvXiX3 $ > , - u lXDXZXBXBXDXZXDXDXNXBXmXZXZXZXZXZXZXZXDXDXBXBXBXDXDXDXBXBX",
"DXZXZXAXDXBXBXBXZXAXZXZXDXBXBXZXZXZXNXFXNXvXGXZXmXDXDXNXiX5 $ > , $ u lXSXDXBXDXDXZXZXSXDXBXBXDXDXSXDXDXDXZXDXDXDXBXBXBXBXBXBXBX",
"DXDXDXFXNXDXDXDXZXGXDXDXBXDXDXDXZXZXDXNXFXDXZXZXGXMXDXCXiX3 # > , < u iXCXBXFXDXSXGXZXZXDXDXBXDXDXDXDXBXFXBXFXNXDXDXDXDXDXVXVXVX",
"BXFXBXDXFXFXDXDXDXDXGXGXFXBXBXDXGXGXDXHXFXvXZXSXGXDXFXFXiX= $ > >   u KXFXHXvXDXSXvXGXDXmXFXDXFXDXFXBXHXNXDXDXDXDXDXGXDXDXFXVXVX",
"HXFXHXBXFXmXGXGXDXGXDXNXFXHXFXBXGXvXHXLXVXFXPXDXBXFXFXFXyX= $ # # ; y iXHXDXZXGXGXGXGXDXDXFXNXHXSXGXFXMXPXFXVXPXFXFXDXDXGXSXDXDX",
"VXBXvXHXDXGXAXSXSXGXSXGXNXDXDXFXSXGXPXlXVXPXMXNXDXFXVXlXyX= $ # # + y xXJXAXAX&XX.o.AXAXGXAXHXSXD.zXAXGXGXBXCXVXVXFXDXDXSXSXSXSX",
"LXFXHXDXDXGXGXzXzXA.D.zXGXzXSXSXJXzXzXJXSXFXFXPXDXFXFXKX8X= * # # * 7 a.B X.K.j m m B E.O.w.L.M M m R.zXzXGXBXPXVXVXVXFXFXDXDXJX",
"DXFXJXSXzX<.t.zXM M M } zXR.D.zXM M M pXSXPXSXBXFXDXFXKXc.- * @ # + : c c m h h g h x m m k m j j m X.zXJXJXPXFXLXLXLXFXFXHXFXFX",
"zXJXzXE.M m m x h h x h B h m m x x j B JXAXFXHXGXFXLXKX) - # # # $ : c x h h g x g h h h h h h h m m ..JXSXHXVXLXLXLXLXLXFXFXFX",
"zXzXe.B m m h h h h g h h h h h h g x m w.JXJXSXFXPXIXUXa $ # # # ; O z l l g g g l g l l g x g l l c c tXxXxXKXKXKXKXKXxXxXxXxX",
"zXM M m j h h h h h h h h h h h h h g x M I.KXxXKXKXKXUX6 $ # > > & % v z s z s s b b b n n n n n n n E W ^ ^ ^ W W W W W W W W ",
"L.c c x x x g g g g g l l l l l l l l z c 8.x.x.s.p.;.:.; $ # # > # % v W G _ _ _ G G G G G G ` G G S G I I L K K K D D K K K K ",
"z.b z z z b n n n n n n E E E E ] ] ] _ G W W W P ( ( 8 @ @ # # , # & d P L S L H L I I I I L H I I I I I I L K K K D K K K L L ",
"[ G ] ] ] _ _ G G G I I I I I I _ G S S K L T J T F d % % @ & & > # @ % 2 d { Y J F L L H L T L L K K K I L L K K D D K K L P P ",
"_ G _ G G G ` G S K K K K H H H I I L L L Y f d 1 % 1 1 d 2 * + @ & 8 d d d d 2 1 1 f S I D D K K K K K K K K D K K K K L H P P ",
"` S S ` ` K K K K K K K L L L L H I F J F L H J J J J J T J ( ( ( Y T T F F T T T H K ` ` S S K ' ' D K K K K K K K K K L L H P ",
"` D S L L K K H K K K K K K D K K D F F F L L I H L L S S F P Y P H H K L F J J J L K S S K F F D K K L L P J L L K K D K K K K ",
"L F L L F L L J K L K K K K D D D S F F F K I I U H D D ' D J P H ` G S L L T F J U K S K D F F D K L H H P J H H K K D D S S S "
};
