/* XPM */
static char *fb082cfbece347fcf77ce58205b9f88fcqHY52ZeanNXRt5j[] = {
/* columns rows colors chars-per-pixel */
"64 64 244 2 ",
"   c #5A4712",
".  c #5C4A14",
"X  c #5D4E1A",
"o  c #5D541B",
"O  c #5E551A",
"+  c #60541D",
"@  c #5C5926",
"#  c #625422",
"$  c #645A2A",
"%  c #685F31",
"&  c #5C632F",
"*  c #5C6836",
"=  c #5D743B",
"-  c #65682A",
";  c #68742E",
":  c #686637",
">  c #687836",
",  c #5A6F46",
"<  c #5A764A",
"1  c #537C55",
"2  c #547D5A",
"3  c #597C58",
"4  c #696B45",
"5  c #65734B",
"6  c #647A48",
"7  c #747347",
"8  c #687855",
"9  c #757957",
"0  c #577F61",
"q  c #697F62",
"w  c #777E64",
"e  c #837B58",
"r  c #6D8539",
"t  c #718D3D",
"y  c #73913F",
"u  c #5F884E",
"i  c #5B8355",
"p  c #5C8757",
"a  c #57815C",
"s  c #5A835C",
"d  c #54995C",
"f  c #589958",
"g  c #67884B",
"h  c #738547",
"j  c #6C964C",
"k  c #739442",
"l  c #769B45",
"z  c #749C4B",
"x  c #789C4A",
"c  c #678B55",
"v  c #638A5C",
"b  c #778559",
"n  c #6B9453",
"m  c #6D9757",
"M  c #649D53",
"N  c #6B945B",
"B  c #739C54",
"V  c #749A5B",
"C  c #76A146",
"Z  c #78A047",
"A  c #76A249",
"S  c #78A249",
"D  c #6BA059",
"F  c #7AA453",
"G  c #7CA55B",
"H  c #7CA65A",
"J  c #5A8363",
"K  c #5A8462",
"L  c #5D876A",
"P  c #5E886C",
"I  c #5A9C64",
"U  c #5F8870",
"Y  c #668667",
"T  c #628C64",
"R  c #628B6C",
"E  c #778767",
"W  c #6A9465",
"Q  c #779865",
"!  c #648D74",
"~  c #6A8D74",
"^  c #798974",
"/  c #669174",
"(  c #6B9374",
")  c #6B9679",
"_  c #6B947C",
"`  c #739D73",
"'  c #78947A",
"]  c #729D7C",
"[  c #63A36E",
"{  c #7BA463",
"}  c #7BA667",
"|  c #69A676",
" . c #7AA474",
".. c #7BA779",
"X. c #83A84F",
"o. c #97A64C",
"O. c #98A74D",
"+. c #83A851",
"@. c #82AA5E",
"#. c #9CB75F",
"$. c #868669",
"%. c #8D8E74",
"&. c #8E9575",
"*. c #869778",
"=. c #82A966",
"-. c #83AC6B",
";. c #88B16F",
":. c #82AC72",
">. c #84AD7B",
",. c #89B378",
"<. c #95B377",
"1. c #6B9683",
"2. c #6E9985",
"3. c #6F9A8B",
"4. c #739C85",
"5. c #7B9A85",
"6. c #739C8C",
"7. c #749F92",
"8. c #79A986",
"9. c #7CA48E",
"0. c #7AB18A",
"q. c #76A293",
"w. c #7BA593",
"e. c #7CAA95",
"r. c #7AA69A",
"t. c #7DAA9B",
"y. c #7DAAA3",
"u. c #869D89",
"i. c #85AA88",
"p. c #95A888",
"a. c #8AB688",
"s. c #93B986",
"d. c #92BB8B",
"f. c #88A997",
"g. c #83AD9C",
"h. c #95A596",
"j. c #8BB492",
"k. c #88B799",
"l. c #94BA98",
"z. c #94BC9B",
"x. c #A3B094",
"c. c #84ACA3",
"v. c #82AEAA",
"b. c #8BAFAC",
"n. c #99AEA6",
"m. c #8CB7A3",
"M. c #84B1AB",
"N. c #8BB3AB",
"B. c #94BAA7",
"V. c #92B4AB",
"C. c #8AB6B3",
"Z. c #89B8B5",
"A. c #8DBBBB",
"S. c #93BBB5",
"D. c #9ABCB7",
"F. c #92BDBC",
"G. c #A7B6AE",
"H. c #9CC08B",
"J. c #99C29B",
"K. c #B1C18A",
"L. c #A4C495",
"P. c #94C2A3",
"I. c #9CC5A6",
"U. c #95C2AB",
"Y. c #9CC5AC",
"T. c #94C2B3",
"R. c #9BC6B4",
"E. c #99C7B9",
"W. c #9BC2BD",
"Q. c #A4C9A8",
"!. c #A3CBB5",
"~. c #A3CBBB",
"^. c #A8C8BB",
"/. c #B5CBBB",
"(. c #8FBDC1",
"). c #92BEC0",
"_. c #94C3C4",
"`. c #9CC4C2",
"'. c #9DCCC3",
"]. c #95C4CB",
"[. c #9BC4CA",
"{. c #9CCBCC",
"}. c #9FD0C4",
"|. c #9BC9D4",
" X c #9ECEDC",
".X c #A5C8C5",
"XX c #A4CDC5",
"oX c #A3CCCB",
"OX c #B9C9C6",
"+X c #ADD2C4",
"@X c #A4D1CB",
"#X c #A9D2C9",
"$X c #B3D6C8",
"%X c #A6CDD5",
"&X c #B8CDD3",
"*X c #A4D3D4",
"=X c #ADD5D5",
"-X c #A5D4DB",
";X c #ABD5DC",
":X c #ACD9D8",
">X c #B8D8D9",
",X c #BEE0DA",
"<X c #A4D3E3",
"1X c #ACD6E3",
"2X c #AADAE5",
"3X c #A5D6EB",
"4X c #A7D8EB",
"5X c #ABDBEC",
"6X c #B7DCE7",
"7X c #B4DDEB",
"8X c #ABDCF4",
"9X c #ADDDFB",
"0X c #ACDEFA",
"qX c #ACDDFC",
"wX c #ADDEFC",
"eX c #B2DEF6",
"rX c #BBE1E8",
"tX c #AEE0F9",
"yX c #B6E1F5",
"uX c #BBE2F3",
"iX c #B4E0FC",
"pX c #BBE3FB",
"aX c #C4DBC6",
"sX c #C4DBDD",
"dX c #C2E1DC",
"fX c #D3E6D8",
"gX c #C5DDE1",
"hX c #C9DFE1",
"jX c #CCE3E4",
"kX c #C8E5E9",
"lX c #D4E7E9",
"zX c #DCEBEC",
"xX c #C9E8F5",
"cX c #C5E7FC",
"vX c #C8E7FC",
"bX c #C6E9FC",
"nX c #CCEAFD",
"mX c #D8EEF4",
"MX c #D3EDFD",
"NX c #DBF0F6",
"BX c #DBF1FD",
"VX c #E1EEEF",
"CX c #E1F1F6",
"ZX c #E1F3FE",
/* pixels */
"qXqXqXqXqXqXqXqXqXqXqXqXqXqXqXqXqXqXqXqXqXqXqXqXqXqXqXqXqXqXqXqXqXqXqXqXqXqXqXqXqXqXqXqXqXqXqXqXqXqXqXqXqXqXqXqXqXqXqXqXqXqXqXsX",
"qXqXqXqXqXqXqXqXqXqXqXqXqXqXqXqXqXqXqXqXqXqXqXqXqXqXqXqXqXqXqXqXqXqXqXqXqXqXqXqXqXqXqXqXqXqXqXqXqXqXqXqXqXqXqXqXqXqXqXqXqXqXqXsX",
"qXqXqXqXqXqXqXqXqXqXqXqXqXqXqXqXqXqXqXqXqX9XqXqXqX9XqXqXqXqXqXqX9X8XqXqX3X X9X9X9XqXqXqXqXqXqXqXqXqXqXqXqXqXqXqXqXqXqXqXqXqXqXsX",
"qXqXqXqXqXqXqXqXqXqXqXqXqXqXqXqXqXqXqX<X{.Z.3XqXqX9X4X].].9XqXqX X7. X(./ 1.3X3X9X9XqXqXqXqXqXqXqXqXqXqXqXqXqXqXqXqXqXqXqXqXqXsX",
"qXqXqXqXqXqXqXqXqXqXqXqXqXqXqXqXqXqXqXP.N 2 M.8X8X4Xq.a 2.8XqX9Xy.1 y./ 1 2.y.! A.9XqXqXqXqXqXqXqXqXqXqXqXqXqXqXqXqXqXqXqXqXqXsX",
"qXqXqXqXqXqXqXqXqXqXqXqXqXqXqX2X@X4X9XJ.n 2 ] ,.'.<XP J v. X|.8XZ.L Z.v.r.].M.2.v.(.3XtX9X9X9XqXqXqXqXqXqXqXqXqXqXqXqXqXqXqXqXsX",
"qXqXqXqXqXqXqXqXqX9XqXqXqXqXqX'.G a.2X-X..] i.B T.8XZ.M.*Xr.K A.8X_.6.r. X6.6. X6.a 9.E.-X9X8X9XqXqXqXqX9XqXqXqXqXqXqXqXqXqXqXsX",
"qXqXqXqXqXqXqXqX9X9X9X9X9X9X9X-X-.G *X].L L t.R P ].q.T i.{./ t.5X3X! 2 A.r.J _.<Xg.B F T.r.6.<X9X2X2X8X9X9X9XqXqXqXqXqXqXqXqXsX",
"qXqXqXqXqXqXqXqX4X'.2X5X8X5XE.*X*Xg.].2X` s C.].v.E.N i v.9XU.W _ M._.1.6.N.b.3X|.) s  .S.K / 2X*X .) v.9X<X<X9XqXqXqXqXqXqXqXsX",
"qXqXqXqXqXqX9X9X-XG d.P.,.U.W  .2X3.L _...n E.-XT.*Xz.k.C.8XXXN 1 K (.6.2 R V V.q.1 J S.`.} B t.9.i 1 q.E.{ l.9X9X9X9X9XqXqXqXsX",
"qXqXqXqXqXqXqX8XE.-.l.P.C { R R -X4.2 Z.2.i B.] i A.tXM.K (.8XE.q.1.(.Z./ c B ^ f.M.].-Xi.B n a R J / F.,.C l.9X9X9X9X9XqXqXqXsX",
"qXqXqXqXqXqX9XU.B { *X2XJ.P._.t.W.i.n T.q.q.N.K P |.9Xy.2 Z.M.1._.8X9X3X'.N s R b c.M.N.s 1 ] ].|.{.Z./ N { {.qXqX9X9X9XqXqXqXsX",
"qXqXqXqXqXqX8XB.p ` _.r.c.P.F.! L S.U.U.} P.2XW. X-Xj.j.M.2XZ.P q.E.B._ r.m.2 1 > ] J < < 2 1.5X4X8X|.! / {.9XqXqXqXqXqXqXqXqXsX",
"qXqXqXqXqX9X9X8Xq.v { s 1 V ] 2 s _.y.( { E.oX-XtXm.u R  X9X8X].y.N z n q.<Xr._ E f.5 g } M.m.e.! 6.].2X{.'.9XqXqXqXqXqXqXqXqXsX",
"qXqXqXqXqX9X<Xv.r.} ,.g./ k.k.e.m.*Xe.a S.B.A ,.2Xw.1 ! <X'.i.! 2 v B V _.9XS.i.4 ^ v c i.;X>.i 2 L ].9Xd.F oXqXqXqXqXqXqXqXqXsX",
"9X9X9X9X9X9X_.K 2 ] -X}.@XE.G E.tXE.G c V.Q C d.D.m m B.<X' > 1 L Z.4.1 9.N.T = h {._ 2 / U.G m w.].8X Xa.A '.qX9X9X9X9X9X9X9XhX",
"9X9X9X9X9X-X:.n 1 _ B.F  .] n m.2X@X:.i q Q Q g.*.F A ..R R j.i.T.-X` ( V p 2 = c e.N.T 2.E.` a ! g.S.! m.P.5XqX9X9X9X9X9XqXqXhX",
"9X9X9X9XtX'.=.B i R :.A  .K 1 ' 5.i.{ i Y c.a 2 ' b b E 8 ~ [.{.c.] V R.:.c ( 9 w.R Q } '.a.T a i z W J ].2X5X9X9X9X9X9X9XqXqXhX",
"qXqXiXiX5XR.P.k.0 2.i.W w.C.v.{.! 1 k 6 f.5X6.2 4.W.;XY.-.z.2Xr.1 1 8.2Xh.g v Y -XoXm i r.*XXXi.B ,.'.A.z.=.,.:XiXqXqXqXqXqXqXsX",
"iXiX5X*X@X-.F U.A.-X2.1 ! |.).|.P T 6 > =.@X`.^ XXa.~.-.C d.7XN.q.r.-X.Xb z i 2 ' V.J 0 9.a...g.m.'.A.6.N S F Y.iXtXiXiXiXiXiXhX",
"eXeXP.F a.XXa.4.t.%X6.1.C.2.2 g.N.S.P i z :.V.^ z.C d.Y.P.;XC._ _.yX%Xq ' l.] a Y 8 & 8 j.n 1 1 T V a 1 w.E.#X7XeXiXiXiXeXiXiXhX",
"yXyX=Xl.J.J.` a U |.2X7X<XL a j.XX:.s R W s Y 4 l.=.!.eXyX7X( 1 R S.w q 2 r.a.j } ~ 1 5 : h ] 1.B.i./ q.Z.3.t.*XyXiXiXiXeXiXiXhX",
"iXiXiXpX#XS z j.-XeXC.7.S.r.9.=X#XF j ' `.! s & *.:XoX2.S.l.6 T ~ 4 h.c.2 4. .p c T 2 R E 9 @Xl.d.:XC.N.S.s i { =XiXiXiXiXiXiXhX",
"iXiXiXyXoX,.I.7XpXyXg.1 R R.z.=.I.Y.,.9 *.i.l.> : *.9 1 v n i T.n.4 m.a.W `.:Xr.w.W.9.g.B : ' m d.Y.W 2 r.j.-.s.:XyXyXyXiXiXiXhX",
"pXpXpX-X1.9..XuXpXpXW.p i } I.S ,.yX`.R * - 9 9 8 8 > 5 * W L S.6.1 T G  .`.~.g.! W -.!.b @ 1 R oX:.j ` %X6XY.s.Y.yXpXpXpXpXpXjX",
"pXpXpX;X! 1 ..N.S.uX=X8.p j.R.v ` 1Xv.K L V.=Xr.a s j..X4 i.D.w 3 1 g.oXL s m n 1 2 6 7 $ *.) 2.W.s a R %X6X-.j B R.S.1XpXpXpXjX",
"pXpXpXpX`.( ' Y L oXa.N K 9.} 3 2 M.7Xg.N.uXuXr.R ` d.9.3 6.uXD.8 & =.:X6.2 g > * ~ E b 9 9 i.@X*XT s 2 ! B.8.1 4.g.a k.6XpXpXjX",
"pXpX7XN.oXT.9.5 6 l. .{ U.U.G ` L c.!.T L i.d.Y.;Xs.z i 2 c.pXcX#X8 g #X;X5.& X %.:X,.,.^.> : ~.!.n ..] 1 ` 9.1 f.u.g { #XpXpXjX",
"pXpX7X/ 1.S.2 3 > i K a.+XN.J >.>.=X-.c s n C F #X+XQ 8 V.6X1X).;Xc.2 i.^.9 O , B.rXY.U.!.x < R 8.L R } m *.E 5 *.p.W s 2.1XpXjX",
"pX6X%XS.S.1X7.4.D.K i j  .S.1.V ;.f.V z.oX.Xs.-.+Xn.: p.^.$X .2 _ oX5 r : . : 2 R :XoXP ] z.) 2 ~ i.f.B.Q : , s m F T J g.uXpXjX",
"uXg.K 6.7XcX%X`.uXf.* g a `.rXB.R._ K %XbX$Xd.+X#X4 b >.G +X>.s J D.% @ X : B.T 2 j.m.1 T :XoX) < - 4 4 < T 9.K v N s W.uXcXcXjX",
"cXoX( ! `.%XR ( =XD.9 4 V.uXW.P N.9.2 .X6X>.G >Xh.< 2 W s.rXrXW.N.h.X @ < ' ~.B m !.Y.s 9..X6.f.-.g E ^.Q p ~.oXW.D.! oXbXcXcXjX",
"cXcX6X_ _ N.2 w.9.J Q - 9 h.~ 1 5 7 : 5 Y s j.^.9 1 R B.J.~.rX$X$X9 . @ 1 J B.J.!.S.Q >.+X>.s 5.!.T L =X!.s.+XbXbXcX6XuXcXcXcXjX",
"cXcX6X6.V.;X^.n.5.j.G { h.$.4 5 h.&X&XG.~ 2 3 $ @ @ 9 s.C ;.J.F h X . X v p ` rXbXf.1 z.Q.A I.Q.G c _ 6XvXxXxXcXcXcXcXcXcXcXcXlX",
"vXvXcX6XcXvXvX>Xh.h.W s i.&.w ^.6XD.6XvX=Xg.N.G.OX$.X h ,.!.$Xd.- . . $ z.=.d.kX+Xz.f.^.$X!.Q.Q.J.!.=XcXvXcXcXvXvXvXvXvXvXvXcXlX",
"cXcXcXvXcXcXvXbXxX^.R L u.n.f.N.oXK c.bXvXvXvXvXvX>X4 # V <.rX&.. . . : $X>XkXkX=.-.Q.G ;.Q.@.-.>XvXvXcXcXcXcXcXcXcXcXcXcXcXbXlX",
"vXvXvXvXvXvXvXvXvXxX.X=XvX>XJ ! >XD.D.xXvXvXvXvXvXvXn.X O x p.# . . . ; ^.nXvXkX;.-./.@.C J.>X>XvXvXvXvXvXvXvXvXvXvXvXvXvXvXvXlX",
"vXvXvXvXnXnXnXnXvXvXnXnXnX>X~ V.vXnXvXvXvXvXvXvXvXvXgX7 . $ $ . . . X &.,XvXvXvX$X$XxX>XQ.$XnXvXvXnXvXvXvXvXvXvXvXvXvXvXnXnXvXlX",
"vXnXnXvXnXvXnXnXvXvXvXvXnXvX>XxXvXnXnXnXvXvXvXvXvXnXnXh.. . . . . . # OXnXnXvXnXnXnXnXnXnXnXnXvXnXnXnXvXvXvXvXvXvXvXvXvXnXnXnXlX",
"nXnXnXnXnXnXnXnXnXnXnXnXnXnXnXnXnXnXnXnXnXnXnXnXnXnXnX>X% . . . . . : sXnXnXnXnXnXnXnXnXnXnXnXnXnXnXnXnXnXnXnXnXnXnXnXnXnXnXnXlX",
"nXnXnXnXnXnXnXnXnXnXnXnXnXnXnXnXnXnXnXnXnXnXnXnXnXnXnXxX$.  . . . . 7 kXnXnXnXnXnXnXnXnXnXnXnXnXnXnXnXnXnXnXnXnXnXnXnXnXnXnXnXlX",
"nXMXnXMXMXMXMXMXMXMXMXMXMXnXMXnXMXMXMXMXMXnXMXMXMXMXMXMXx.. . . . . 9 xXMXMXMXMXMXMXMXMXMXnXMXnXMXMXMXMXMXnXMXMXnXMXMXMXMXMXnXlX",
"nXnXMXMXMXMXMXMXMXMXMXMXMXMXMXMXMXMXMXMXMXMXMXMXMXMXMXMXG.X . . . . $.xXMXMXMXMXMXMXMXMXMXMXMXMXMXMXMXMXMXMXMXMXnXnXMXMXMXMXMXlX",
"MXMXMXMXMXMXMXMXMXMXMXMXMXMXMXMXMXMXMXMXMXMXMXMXMXMXMXMXG.X . . .   $.MXMXMXMXMXMXMXMXMXMXMXMXMXMXMXMXMXMXMXMXMXMXMXMXMXMXMXMXlX",
"MXMXMXMXMXMXMXMXMXMXMXMXMXMXMXMXMXMXMXMXMXMXMXMXMXMXMXMX/.+ . . .   $.MXMXMXMXMXMXMXMXMXMXMXMXMXMXMXMXMXMXMXMXMXMXMXMXMXMXMXMXzX",
"MXMXMXMXMXMXMXMXMXMXMXMXMXMXMXMXMXMXMXMXMXMXMXMXMXMXMXBXOX# . . .   %.MXMXMXMXMXMXMXMXMXMXMXMXMXMXMXMXMXMXMXMXMXMXMXMXMXMXMXMXzX",
"MXMXMXMXMXMXMXMXMXMXMXMXMXMXMXMXMXMXMXMXMXMXMXMXMXMXMXBXOX# . . .   %.MXMXMXMXMXMXMXMXMXMXMXMXMXMXMXMXMXMXMXMXMXMXMXMXMXMXMXMXzX",
"MXMXBXBXMXBXBXBXBXBXMXMXMXMXMXMXMXMXBXBXBXBXMXMXMXMXMXBXOX# . . . . %.BXMXBXBXBXBXBXMXMXMXMXMXMXMXMXBXBXBXBXMXMXMXMXBXBXMXMXMXzX",
"BXBXBXBXBXBXBXBXBXBXBXBXBXBXBXBXBXBXBXBXBXBXBXBXBXBXBXBXOX# . . . . &.NXBXBXBXBXBXBXBXBXBXBXBXBXBXBXBXBXBXBXBXBXBXBXBXBXBXBXBXzX",
"BXBXBXBXBXBXBXBXmXjXkXBXBXBXBXBXBXBXBXBXBXBXBXBXBXBXBXBXOX# . . .   %.NXBXBXBXBXNXBXBXBXBXBXBXBXBXBXBXBXBXBXBXBXBXBXBXBXBXBXBXzX",
"BXBXBXBXBXBXBXkXk.[ | ~.mXdXdXmXBXBXBXBXBXBXBXBXBXBXBXBX/.+ . . .   %.BXBXBXBXBXBXBXmXNXBXBXBXBXNXjX>XlXBXBXBXBXBXBXBXBXBXBXBXzX",
"BXBXBXBXBXBXBXU.d d d I 8.I I k.lXBXBXBXBXBXBXBXBXBXBXBX/.X . . .   %.BXBXBXBXBXmXR.8.m.kXkXjXmX~.[ I 8.>X>X+XdXBXBXBXBXBXBXBXzX",
"BXBXBXBXBXBXlX8.d d d d d d d d P.jXNXBXBXBXBXBXBXBXBXZXG.. . . .   $.BXBXBXBXZX$XI d d ..| [ k.[ d d d [ W d [ $XZXBXBXBXBXBXzX",
"ZXZXZXBXZXjX0.I d d d d d d d d I [ U.mXZXZXZXZXZXZXZXZXx.. . . . . e NXZXZXZXlXk.d d d d d d d d d d d d d d d | +XjXZXZXZXZXzX",
"ZXZXZXZXZXz.d d d d d d d d d d d d I $XZXZXZXZXZXZXZXZX&.. . . . . e zXZXZXmXj.d d d d d d d d d d d d d d d d d d | dXZXZXZXVX",
"fXaXaXaX/.} M M M M M M M M M M M M M ,.L.L.L.L.L.L.L.L.7 . . . . . : x.L.L.H.D M M M M M M M M M M f f f f f f f f f z.NXCXCXVX",
"#.+.A A A S S S S S S S S S S S S S S S S S S C C C C k O . . . . . O k S S Z S S Z S S S S S S S S S S S S S S S A A G <.<.s.K.",
"#.X.S S S S S S S S S S S S S S S S S S S S S S S S S t X . . . . . X t S S S S S S S S S S S S S S S S S S S S S S S S C C C o.",
"#.+.S S S S S S S S S S S S S S S S S S S S S S S S S - . . . . . . . > S S S S S S S S S S S S S S S S S S S S S S S S S S S O.",
"#.+.S S S S S S S S S S S S S S S S S S S S S S x y ; . . . . . . . . O - > r r y l l S S S S S S S S S S S S S S S S S S S S O.",
"#.+.S S S S S S S S S S S S S S S S S S x k r > ; - - - > - + O O O - ; ; ; ; ; ; ; t S S S S S S S S S S S S S S S S S S S S O.",
"#.+.S S S S S S S S S S S S S S S S S S S l k k k l l S S S l k k k l S S S S S S Z S S S S S S S S S S S S S S S S S S S S S O.",
"#.+.S S S S S S S S S S S S S S S S S S S S S S S S S S S S S S S S S S S S S S S S S S S S S S S S S S S S S S S S S S S S S O.",
"#.+.S S S S S S S S S S S S S S S S S S S S S S S S S S S S S S S S S S S S S S S S S S S S S S S S S S S S S S S S S S S S S O."
};
