/* XPM */
static char *c15008b8fcd04be0d409b02fcf129ccfndaeXgJJdbIfUeno[] = {
/* columns rows colors chars-per-pixel */
"63 64 198 2 ",
"   c #5A4712",
".  c #5B4A14",
"X  c #5D4D1A",
"o  c #5F501F",
"O  c #5E5222",
"+  c #615323",
"@  c #64562A",
"#  c #665B2D",
"$  c #6A5B2C",
"%  c #655C30",
"&  c #695E32",
"*  c #6B6035",
"=  c #6D653C",
"-  c #6F693F",
";  c #6E6742",
":  c #6D6842",
">  c #6F6D4C",
",  c #706B44",
"<  c #716F4C",
"1  c #74714C",
"2  c #6E7052",
"3  c #737354",
"4  c #797554",
"5  c #74765A",
"6  c #75795E",
"7  c #7B7C5E",
"8  c #757B62",
"9  c #797D62",
"0  c #7D7F69",
"q  c #857B56",
"w  c #827B5C",
"e  c #817D61",
"r  c #7D836D",
"t  c #7C8572",
"y  c #7D8976",
"u  c #7F8B7B",
"i  c #86876B",
"p  c #818A75",
"a  c #8D8C73",
"s  c #848D7A",
"d  c #928D73",
"f  c #87917B",
"g  c #8A937E",
"h  c #94947D",
"j  c #9C967B",
"k  c #838F81",
"l  c #859283",
"z  c #8A9483",
"x  c #85958B",
"c  c #89978B",
"v  c #89998B",
"b  c #8B988D",
"n  c #949682",
"m  c #969983",
"M  c #939C8C",
"N  c #9A9D8C",
"B  c #839A95",
"V  c #8B9C94",
"C  c #8B9E99",
"Z  c #909E93",
"A  c #A59C80",
"S  c #9BA08A",
"D  c #8AA09C",
"F  c #91A295",
"G  c #93A59C",
"H  c #A7A289",
"J  c #A5A99B",
"K  c #B1AC94",
"L  c #8DA5A3",
"P  c #92A6A1",
"I  c #94A9A4",
"U  c #9AABA3",
"Y  c #93ACAB",
"T  c #9CAEAA",
"R  c #9BB1AE",
"E  c #8FAFB4",
"W  c #93ADB0",
"Q  c #94B1B3",
"!  c #9BB3B2",
"~  c #94B4BB",
"^  c #9CB6BA",
"/  c #9DB9BD",
"(  c #A7AEA4",
")  c #AAB2AA",
"_  c #A2B5B3",
"`  c #A2B9B5",
"'  c #A4BDBE",
"]  c #ADBFBE",
"[  c #B1BCB4",
"{  c #B3BAB9",
"}  c #C4BCA9",
"|  c #ADC1BE",
" . c #BAC2BC",
".. c #CBC6B4",
"X. c #D1CDBC",
"o. c #95B6C1",
"O. c #96B9C7",
"+. c #9CBAC4",
"@. c #9DBECA",
"#. c #A1BEC3",
"$. c #A3BFC8",
"%. c #9AC2D4",
"&. c #A3C0C5",
"*. c #ACC1C4",
"=. c #A4C2CC",
"-. c #A9C5CB",
";. c #B5C4C2",
":. c #BAC6C7",
">. c #BDC9C7",
",. c #B6CACD",
"<. c #BDC9CC",
"1. c #A3C6D6",
"2. c #A5C9D5",
"3. c #ACCAD5",
"4. c #A0C7DC",
"5. c #A4CADC",
"6. c #ACCDDC",
"7. c #B3CED5",
"8. c #BDCDD1",
"9. c #AED0DD",
"0. c #BBD2D3",
"q. c #B5D4DE",
"w. c #BBD5DC",
"e. c #9FCDE4",
"r. c #9DD2F7",
"t. c #9ED1FB",
"y. c #A5CEE6",
"u. c #ABCEE1",
"i. c #A7D0E4",
"p. c #ABD2E4",
"a. c #A4D1EC",
"s. c #ABD3EA",
"d. c #B3D4E2",
"f. c #B6D9E5",
"g. c #BCDAE5",
"h. c #B3D7EB",
"j. c #B4D9EC",
"k. c #B9DBEA",
"l. c #A5D5F6",
"z. c #A9D6F4",
"x. c #ACD9F4",
"c. c #A3D4FB",
"v. c #A8D7FA",
"b. c #A7D8FA",
"n. c #ACD9FB",
"m. c #A9D9FC",
"M. c #AAD9FC",
"N. c #B4DCF3",
"B. c #BADFF2",
"V. c #B3DDF9",
"C. c #B4DDFC",
"Z. c #B8DFFC",
"A. c #BFE1EE",
"S. c #BBE1F5",
"D. c #B6E0FB",
"F. c #BCE2FB",
"G. c #C6CEC8",
"H. c #D4D2C6",
"J. c #D5D5CB",
"K. c #C4D7D8",
"L. c #D6DCD5",
"P. c #D7E0DA",
"I. c #E0E2DD",
"U. c #C3DCE4",
"Y. c #CBDDE6",
"T. c #C4DEE9",
"R. c #D0DFF2",
"E. c #C1E2EE",
"W. c #CCE4ED",
"Q. c #D6E2E3",
"!. c #D5E5ED",
"~. c #DCE8EC",
"^. c #C4E4F3",
"/. c #CAE6F5",
"(. c #CCE9F6",
"). c #C3E6FC",
"_. c #C9E6FB",
"`. c #C6E8FD",
"'. c #CBE9FD",
"]. c #D2E3F4",
"[. c #D3EAF5",
"{. c #DDEAF6",
"}. c #D5E7FD",
"|. c #D9E7FA",
" X c #D3EBFD",
".X c #DBE9F9",
"XX c #DAF0FB",
"oX c #E5E8E3",
"OX c #E2EBED",
"+X c #EBECED",
"@X c #EDF1EF",
"#X c #E3EBF3",
"$X c #E9EBF0",
"%X c #E6F2F7",
"&X c #E2F2FA",
"*X c #EBF5FA",
"=X c #F3F7F5",
"-X c #FAFDFB",
/* pixels */
"t.t.t.t.t.t.t.t.t.t.t.t.t.t.t.t.t.t.t.t.t.r.x.x.t.t.t.t.t.t.t.t.t.t.c.l.t.t.t.t.t.t.t.t.t.t.t.t.t.t.t.t.t.t.t.t.t.t.t.t.t.t.t.",
"t.t.t.t.t.t.t.t.t.t.t.t.t.t.t.t.t.t.t.t.t.t.t.t.t.t.t.t.t.t.t.t.t.x..XXXx.t.t.t.t.t.t.t.t.t.t.t.t.t.t.t.t.t.t.t.t.t.t.t.t.t.t.",
"c.t.t.t.t.t.t.t.t.t.t.t.t.t.t.t.t.t.t.t.t.t.t.t.t.t.t.t.t.t.t.t.t.B.-X-X^.t.t.t.t.t.t.t.c.c.c.c.t.c.c.c.c.c.t.t.c.c.c.c.t.c.c.",
"c.c.c.c.c.c.c.c.c.c.c.c.c.c.c.c.c.c.c.c.c.c.c.c.c.c.t.t.c.c.c.c.c.x. X Xx.c.c.c.c.c.c.c.c.c.c.c.t.t.c.c.c.c.c.t.c.c.c.c.t.t.c.",
"c.c.c.c.c.c.c.c.c.c.c.c.c.c.c.c.c.c.c.c.c.c.c.c.c.c.c.c.c.c.c.c.c.c.c.c.c.c.c.c.c.c.c.c.c.c.c.c.c.c.c.c.c.c.c.c.c.c.c.c.c.c.c.",
"c.c.c.c.c.c.c.c.c.c.c.c.c.c.c.c.c.c.c.c.c.c.c.c.c.c.c.c.c.c.c.c.c.c.c.c.c.c.c.c.c.c.c.c.c.c.c.c.c.c.c.c.c.c.c.c.c.c.c.c.c.c.c.",
"c.c.c.c.c.c.c.c.c.c.c.c.c.c.c.c.c.c.c.c.c.c.c.c.c.c.c.c.c.c.c.c.c.c.c.l.a.l.c.c.c.c.c.c.c.c.c.c.c.c.c.c.c.c.c.c.c.c.c.c.c.c.c.",
"c.c.c.c.c.c.c.c.c.c.c.c.c.c.c.c.c.c.c.c.c.c.c.c.c.c.c.c.c.c.c.c.c.c.c.l.%.~ e.c.c.c.c.l.c.c.c.c.c.c.c.c.c.c.c.c.c.c.c.c.c.c.c.",
"l.c.c.c.n.n.c.c.c.c.c.c.c.c.c.c.c.c.c.c.c.c.c.c.c.c.c.c.c.c.c.c.c.c.c.c.l.%.B 4.c.c.c.%.l.c.c.c.c.c.c.c.c.c.c.c.c.c.c.c.c.c.c.",
"l.c.c.V.*X*XV.c.c.c.c.c.c.c.c.c.c.c.c.c.c.c.c.c.c.c.c.c.c.c.c.c.c.c.c.c.c.m.o.B l.c.l.E a.a.a.c.c.c.c.c.c.c.c.c.c.c.c.c.c.c.c.",
"v.b.c.S.-X-X).c.v.v.c.c.v.c.c.c.v.c.m.m.c.c.c.c.c.c.c.c.v.v.v.v.c.c.c.c.v.v.z.x %.m.y.C +.O.a.c.c.c.c.c.c.c.c.c.b.b.c.c.c.c.c.",
"m.m.v.x.(.[.n.b.m.m.m.m.m.m.m.m.m.m.m.m.m.m.m.m.m.m.m.v.m.m.m.m.v.m.m.m.m.m.n.L o.x.D 5 Q a.m.m.m.m.m.m.m.m.m.m.m.m.m.m.m.m.m.",
"m.m.m.m.m.m.m.m.m.m.m.m.m.m.m.m.m.z.z.x.x.z.m.m.m.a.4.x.m.m.V.V.V.n.m.m.m.m.n.L C x y @.x.m.m.m.m.m.m.m.m.m.m.m.m.m.m.m.m.m.m.",
"m.m.m.m.m.m.m.m.m.m.m.m.m.m.m.m.m.z.+.s.5.4.m.x.1.~ i.m.V.W.L.Q.{.^.x.m.m.a.x.u 5 W s.n.m.m.m.m.m.m.m.m.m.m.m.m.m.m.m.m.m.m.m.",
"n.n.n.n.n.n.n.n.n.n.n.m.V.F.V.m.m.n.@.Q Q y.n.1.Y i.n.x.] ) $.s.V.n.n.n.x.+.@.t 5.n.n.n.n.n.m.m.n.n.n.n.n.n.n.n.n.n.n.n.n.n.n.",
"n.n.n.n.n.n.n.n.n.n.x.2.;. .K.^.V.m.s.t V n.i.L i.x.s.I I s.n.m.n.n.n.n.a.Y b L n.n.n.n.n.n.n.n.n.n.n.n.n.n.n.n.n.n.n.n.n.n.n.",
"n.n.n.n.n.n.n.n.n.n.n.s.s.5.#. .*.n.s.8 +.n.Y p V x y 9 ^ 1.s.n.n.n.n.n.Q Q u @.n.n.n.n.n.n.n.n.n.n.n.n.n.n.n.n.n.n.n.n.n.n.n.",
"n.n.n.n.n.n.n.n.n.n.n.n.n.n.n.5.x / Y k x.x.t k +.5.6.1.5.s.x.n.n.n.n.2.x i.y Y n.n.n.n.n.n.n.n.n.n.n.n.n.n.n.n.n.n.n.n.n.n.n.",
"n.n.V.V.n.n.n.n.n.n.n.n.n.n.n.V.5.p 8 =.n.i.r p.V.V.V.C.C.V.2.s.C.C.s.l +.C.Y > Y 5.N.C.C.C.C.C.n.n.C.C.C.C.n.n.n.n.n.n.n.n.n.",
"V.C.C.C.C.C.C.C.C.C.C.C.C.C.C.C.C.C y V.C.u.8 u.C.C.C.C.C.6.Q x.V.x.z C V.C.N.I 6 5 r ^ N.C.V.C.C.C.C.C.C.C.C.C.C.C.C.C.C.C.C.",
"V.C.C.C.C.C.C.C.C.C.C.C.C.C.C.C.C./ x V.V.s.9 +.C.C.C.V.V.Q +.V.N.c p s.C.C.V.V.j.2.G 3 P N.V.C.C.C.C.C.C.C.C.C.C.C.C.C.C.C.C.",
"V.C.C.C.C.C.C.C.C.C.C.C.C.C.C.C.C.2.t s.C.V.c l V.V.V.V.N.v 5.V.F 8 p.C.C.C.C.C.C.C.C.#.2 #.C.C.C.C.C.C.C.C.C.C.C.C.C.C.C.C.C.",
"V.C.V.C.C.C.C.C.C.C.C.C.C.C.C.C.C.N.l v p.N.R = l C ! p.N.l 2.6.< ' D.V.C.C.C.C.C.C.V.N.r b C.C.C.C.C.C.C.C.C.C.C.C.C.C.C.C.C.",
"V.V.N.N.V.V.V.V.V.V.V.V.V.V.V.V.V.V.9.p 5 6 5 p b l 3 < #.V P / 5 j.V.V.V.V.V.V.V.S.'.{.h P D.V.V.V.V.V.V.V.V.V.V.V.V.V.V.V.V.",
"V.C.h.&./ h.C.V.V.C.C.C.C.C.C.C.C.V.D.N.=.#.6.N.D.D.d.4 9 3.r f 6 j.V.C.C.C.V._.%XoXH.A i p.V.C.C.C.C.C.C.C.C.C.C.C.C.C.C.C.C.",
"V.C.V.N.#.V =.Z.V.C.C.C.C.C.C.C.C.C.C.Z.C.D.C.V.C.V.F.s 5 N.&.5 % ^ D.V.V.N.g.OXJ.S s 5 ; ! V.V.V.C.C.C.C.V.V.V.D.V.V.C.C.C.C.",
"V.C.C.C.F.3.l / F.C.C.C.C.Z.Z.Z.Z.C.Z.Z.C.C.C.C.C.F.6.< F F.D.d.z 3 d.D.N.G 1 d ' h.N.B.G : #.F.V.C.V.V.F._.}.Y.3.6.N.Z.C.Z.Z.",
"Z.Z.Z.Z.Z.D.6.i ' F.F.Z.Z.Z.Z.Z.Z.Z.Z.Z.Z.Z.Z.D.F.-.3 7 d.F.Z.D.j.5 T S.F O @ ! F.D.F.D.S.b 3 6.D.S._.'.&X@XI.[ U U ! h.D.Z.Z.",
"F.F.F.F.F.F.D.&.7 -.F.F.F.F.F.F.F.F.F.F.F.F.F.D.3.< i f.S.F.F.F.F.p z U O O U S.F.F.F.F.F.k.r 3 ,.*X=X@X..J 7.B.S.S.j.j.F.F.F.",
"S.F.F.F.F.F.F.F.G 9 d.F.F.F.F.F.F.F.S.F.F.F.F.S.p ; d.S.F.F.F.F.S.9 < # . z S.F.F.F.F.F.F.F.h.c w H K j z 3.F.F.F.F.F.F.F.F.F.",
"S.F.F.D.D.D.F.F.k.0 p k.F.F.S._. X&X&X.X_.).F.-.@ s S.F.D.D.D.D.q.= X   , d.F.D.D.D.D.D.D.D.D.F.3.U U =.B.S.F.D.D.D.D.D.F.D.D.",
"S.S.F.D.D.S.S.S.S.3.3 7 ` 3.K.L.H...} X.+X*X*XJ . z F.F.D.D.F.F.U X . X G F.S.S.S.S.S.S.S.S.S.S.F.F.F.F.S.S.S.F.F.F.F.F.F.F.F.",
"S.S.F.F.F.f.;.[.).).q.z 5 : * a T _ M 4 q A H q   1 f.S.F.S.F.f.1 .   = q.F.S.S.F.F.F.F.F.F.F.S.S.S.S.F.F.F.F.F.F.F.F.F.F.F.F.",
"S.S.S.S.S.S.7.G.P.Q.{.U.U 1 z f.F.F.F.d.T l s Z 7 X g S.F.S.S.M X . . f S.S.S.S.S.F.F.F.F.F.F.F.S.S.S.F.F.F.F.F.F.F.F.F.F.F.F.",
"S.S.S.S.S.S.F.k.| N H h s ' S.S.S.S.S.F.).).).).q.< X U F.).*.%   . o ` ).S.S.S.S.).S.S.).).S.S.S.S.S.S.S.).).F.F.).F.F.F.F.F.",
").).).).).).).F.).B.f.k.^.).).).F.).).).).).).).).` o % *.g.4   . . = q.).).).).).).).).).).).).F.).).).).).).).).).).).F.F.F.",
").).).).).).).).).).).).).).).).).).).).).).).).).A.7   < i X . .   7 ^.).).).).).).).).).).).).).).).).).).).).).).).).).).).",
").).).).).).).).).).).).).).).).).).).).).).).).).`._ X . . . . .   z ).).).).).).).).).).).).).).).).).).).).).).).).).).).).",
").).).).).).).).).).).).).).).).).).).).).)._._.).).g.,   . . . . X T `.).).).).).).).).).).).).).).).).).)._._.).).).).).).).",
").).).).).).).).).).).).).).).).).).).).).)._._.).).).n . . . . . + *.`.).).).).).).).).).).).).).).).).).)._._.).).).).).).).",
"_.).).).).).).).).).).).).).).).).).).).).).).).).).`.| + . . . . @ ,.`.).).).).).).).).).).).).).).).).).).).).).).).).).).).",
"_._._._._._._._.).).).)._._._._._._._._._._._._.).).`.w.#   . . . # 0.`._._._._.).).).)._._._._._._._._._._._._._._._._._._._.",
"_._.).)._._._._.`.`.`.`.`.`.`.`.`.`.`.`.`.`.`.`.`.`.`.w.*   . . . & w.`.`.`.`.`.`.`.`.`.`.`.`.`.`.`.`.`.`.`.`.`.`.`.`.`.`.`.`.",
"_._.`.`.`.`.`.`.`.`.`.`.`.`.`.`.`.`.`.`.`.`.`.`.`.`.`.g.= . . . . * w.`.`.`.`.`.`.`.`.`.`.`.`.`.`.`.`.`.`.`.`.`.`.`.`.`.`.`.`.",
"'.`.`.`.`.`.`.`.`.`.`.`.`.`.`.`.`.`.`.`.`.`.`.`.`.`.`.U.=   . . . = g.`.`.`.`.`.`.`.`.`.`.`.`.`.`.`.`.`.`.`.`.`.`.`.`.`.`.`.`.",
"'.`.`.`.`.`.`.`.`.`.`.`.`.`.`.`.`.`.`.`.`.`.`.`.`.`.'.T.:   . . . = U.`.`.`.`.`.`.`.`.`.`.`.`.`.`.`.`.`.`.`.`.`.`.`.`.`.`.`.`.",
"'.`.`.`.`.'.'.'.'.'.'.'.'.'.'.'.'.'.'.'.'.'.'.'.'.'.'.T.,   . .   = U.`.'.'.'.'.'.'.'.'.'.'.'.'.'.'.'.'.'.'.'.'.'.'.'.'.`.`.'.",
"'.'.'.'.'.'.'.'.'.'.'.'.'.'.'.'.'.'.'.'.'.'.'.'.'.'.'.T.,   . .   = U.'.'.'.'.'.'.'.'.'.'.'.'.'.'.'.'.'.'.'.'.'.'.'.'.'.'.'.'.",
"'.'.'.'.'.'.'.'.'.'.'.'.'.'.'.'.'.'.'.'.'.'.'.'.'.'.'.T.-   . .   = T.'.'.'.'.'.'.'.'.'.'.'.'.'.'.'.'.'.'.'.'.'.'.'.'.'.'.'.'.",
"'.'.'.'.'.'.'.'.'.'.'.'.'.'.'.'.'.'.'.'.'.'.'.'.'.'.'.T.- . . . . = T.'.'.'.'.'.'.'.'.'.'.'.'.'.'.'.'.'.'.'.'.'.'.'.'.'.'.'.'.",
" X'.'.'.'.'.'.'.'.'.^.^./.'.'.'. X X X X'.'.'.'.'.'.'.U.=   . . . = U.'. X X X X'.'.'.'. X X X X'. X'.'. X X X X'.'.'.'. X X X",
" X X X X X X X'.'.^.A.A.A.^.^.^.^.'. X'.'. X'.'.'.'. XK.& . . . . * K. X X X X X'.'.'.'./.'. X'. X X'.^.^./.'.'.'.'.'.'. X X X",
" X X X X X X X X'.A.A.E.A.A.A.A.A.^.'. X X X X X X X X0.@ . . .   & K. X X X X X X X/.A.A.E./.^./.'.E.A.E.E.^.^.^./.'. X X X X",
" X X X X X X X'.^.E.E.E.E.E.E.E.E.E.^./. X X X X X X X;.+ . . . . @ 0. X X X X X X X^.E.E.E.E.E.E.E.E.E.E.E.E.E.E.E./. X X X X",
" X X X X X X'.^.A.A.E.E.E.E.E.E.E.E.E.E./. X X X X X X) X . . . . + >. X X X X X X/.E.E.E.E.E.E.E.E.E.E.E.E.E.E.A.E.E.^./. X X",
" X X X X X X(.E.W.!.!.~.OXOXOX~.!.W.E.E.^.[.{..X.X X Xm   . . . . o [  X X X X X(.E.E.E.E.E.E.E.E.E.E.E.E.E.E.E.E.E.E.E.E.(. X",
" X X X X.X{.OXOX+X+X+X+X+X+X+X+X+X+XOX~.OX+X+X+X+X+X~.q   . . . . . J XX X X X X(.E.E.E.E.E.E.E.E.E.E.E.E.^.^././././././.}.}.",
"}.}.}.}.{.$X$X$X+X+X+X+X+X+X+X+X+X+X+X+X+X+X+X+X+X+XH.$   . . . .   a  X}.}.}.}.}.}.}.}.}.}.}.}.}.}.}.}.|.|.|.|.}. X X}.}.}.}.",
"|.}.}.}.}.}.}.}.}.|.|..X|..X.X{.{.{.{.{.{..X.X.X.XQ.d .   . . . .   = >.Y.].|.}.}.}. X X X X}.}.|..X#X$X$X$X$X$X#X{..X}.}.}.}.",
"|.}.}.}.}.}.}.}.}.}.}.}.}.}.}.}.}.}.}.|.}.].Y.8.J 4 o @ +         + @ = 4 e a N ( :.].}.}.}.|.{.$X+X+X+X+X+X+X+X+X+X+X+X$X#X|.",
"|.}.}.}.}.}.}.}.}.}.}.}.}.}.}.}.}.}.}.].<.) N h h N ( <. .N i w w n [ >.:.;.{ [ ) { R.}.|.{.$X+X+X+X+X+X+X+X+X+X+X+X+X+X+X$X#X",
"|.}.}.}.}.}.}.}.}.}.}.}.}.}.}.}.}.}.}.|.].].].|.}.}.}.}.}.}.|.].].].|.}.}.}.}.}.}.}.}.}.}.|..X.X.X.X.X.X.X|.|.|.|.|.|.|.|.}.}.",
"|.}.}.}.}.}.}.}.}.}.}.}.}.}.}.}.}.}.}.}.}.}.}.}.}.}.}.}.}.}.}.}.}.}.}.}.}.}.}.}.}.}.}.}.}.}.}.}.}.}.}.}.}.}.}.}.}.}.}.}.}.}.}.",
"|.}.}.}.}.}.}.}.}.}.}.}.}.}.}.}.}.}.}.}.}.|.|.#X#X#X{..X|.}.}.}.}.}.}.}.}.}.}.}.}.}.}.}.}.}.}.}.}.}.}.}.}.}.}.}.}.}.}.}.}.}.}."
};
